<svg width="72" height="36" viewBox="0 0 72 36" fill="none" xmlns="http://www.w3.org/2000/svg">
<path d="M37.3606 30.4432C35.9691 30.3505 34.3646 30.1065 33.0991 29.7401C32.862 29.6713 31.8805 29.3106 31.6308 29.1961C27.225 27.1552 24.1558 22.7002 24.1558 17.5316C24.1558 10.4425 29.9233 4.6681 37.017 4.6681C44.0477 4.6681 49.7763 10.344 49.8748 17.353H54.5211C54.4226 7.7832 46.6108 0.0275209 37.017 0.0275209C27.3659 0.0275209 19.5106 7.87826 19.5106 17.5316C19.5106 24.1867 23.2533 29.9748 28.7333 32.9319C29.7228 33.4553 31.143 33.9947 31.6251 34.1424C33.1872 34.6074 35.1044 34.9166 36.8108 35.046C37.3903 35.0896 39.414 35.1125 40.0038 35.1147H72V30.4868H40.0576C39.6327 30.4868 37.7763 30.4707 37.3606 30.4432ZM40.0576 23.1766C39.7198 23.1766 37.9527 23.1651 37.6263 23.1377C37.0731 23.0907 36.2714 23.0082 35.7561 22.8903C35.1743 22.7345 34.628 22.5284 34.3817 22.3932C32.6558 21.4599 31.4797 19.6343 31.4797 17.5316C31.4797 14.4726 33.9569 11.992 37.017 11.992C40.013 11.992 42.4489 14.3753 42.5463 17.353H47.0105C46.9166 11.913 42.4821 7.52895 37.017 7.52895C31.4911 7.52895 27.012 12.0069 27.012 17.5316C27.012 21.4278 29.2453 24.7925 32.4978 26.4406C32.9983 26.7338 33.9397 27.0407 34.2077 27.1105C35.1262 27.3522 36.3596 27.5171 37.3606 27.5904C37.7305 27.6213 39.5423 27.6351 39.9248 27.6374V27.6442H71.9989V23.1766H40.0576ZM16.6475 35.0976H11.9702V4.67841H5.13533V3.20985e-05H16.6475V35.0976ZM0 7.01588V11.5144H5.13533V35.0976H9.62932V7.01588H0Z" fill="url(#paint0_linear)"/>
<path d="M63.7381 0.326974C62.0535 0.326974 60.6562 1.67036 60.6562 3.35618C60.6562 5.042 62.0535 6.43921 63.7381 6.43921C65.4743 6.43921 66.8177 5.042 66.8177 3.35618C66.8177 1.67036 65.4743 0.326974 63.7381 0.326974ZM63.7381 5.94217C62.3466 5.94217 61.1476 4.84845 61.1476 3.35618C61.1476 1.9395 62.3466 0.818289 63.7381 0.818289C65.1285 0.818289 66.3218 1.9395 66.3218 3.35618C66.3218 4.84845 65.1285 5.94217 63.7381 5.94217Z" fill="#EC7A8F"/>
<path d="M64.9094 4.18542C64.9094 3.84528 64.859 3.52919 64.4697 3.40436C64.9575 3.23486 65.0056 2.91533 65.0056 2.72178C65.0056 1.93957 64.2956 1.83994 64.0035 1.83994H62.6602V4.86914H63.2202V3.62654H63.6611C64.2956 3.62654 64.3483 3.91858 64.3483 4.18542C64.3483 4.70193 64.3483 4.79928 64.4697 4.86914H65.0308C64.9094 4.7466 64.9575 4.65154 64.9094 4.18542ZM63.881 3.18447H63.2202V2.23047H63.7859C64.1776 2.23047 64.4433 2.35416 64.4433 2.72178C64.4433 2.91533 64.3483 3.18447 63.881 3.18447Z" fill="#EC7A8F"/>
<defs>
<linearGradient id="paint0_linear" x1="64.6105" y1="17.5613" x2="15.842" y2="50.7094" gradientUnits="userSpaceOnUse">
<stop stop-color="#EC7A8F"/>
<stop offset="1" stop-color="#FCAF8C"/>
</linearGradient>
</defs>
</svg>
