<svg width="66" height="66" viewBox="0 0 66 66" fill="none" xmlns="http://www.w3.org/2000/svg">
<g clip-path="url(#clip0)">
<path d="M64.3294 27.4058C63.7107 27.4058 63.2106 27.9059 63.2106 28.5246V31.8812H60.9449C60.3687 17.3472 48.6543 5.63283 34.1204 5.05662V2.79093H37.4769C38.0956 2.79093 38.5958 2.29081 38.5958 1.67208C38.5958 1.05335 38.0956 0.553223 37.4769 0.553223H28.5261C27.9073 0.553223 27.4072 1.05335 27.4072 1.67208C27.4072 2.29081 27.9073 2.79093 28.5261 2.79093H31.8826V5.05662C17.3487 5.63283 5.63429 17.3472 5.05808 31.8812H2.7924V28.5246C2.7924 27.9059 2.29227 27.4058 1.67354 27.4058C1.05482 27.4058 0.554688 27.9059 0.554688 28.5246V37.4755C0.554688 38.0942 1.05482 38.5943 1.67354 38.5943C2.29227 38.5943 2.7924 38.0942 2.7924 37.4755V34.1189H5.05808C5.63429 48.6528 17.3487 60.3672 31.8826 60.9434V63.2091H28.5261C27.9073 63.2091 27.4072 63.7093 27.4072 64.328C27.4072 64.9467 27.9073 65.4468 28.5261 65.4468H37.4769C38.0956 65.4468 38.5958 64.9467 38.5958 64.328C38.5958 63.7093 38.0956 63.2091 37.4769 63.2091H34.1204V60.9434C48.6543 60.3672 60.3687 48.6528 60.9449 34.1189H63.2106V37.4755C63.2106 38.0942 63.7107 38.5943 64.3294 38.5943C64.9482 38.5943 65.4483 38.0942 65.4483 37.4755V28.5246C65.4483 27.9059 64.9482 27.4058 64.3294 27.4058ZM34.1204 16.2743C42.4816 16.8292 49.1723 23.52 49.7273 31.8812H43.0052C42.4872 27.2211 38.7804 23.5144 34.1204 22.9963V16.2743ZM49.7273 34.1189C49.1723 42.4801 42.4816 49.1709 34.1204 49.7258V43.0037C38.7804 42.4857 42.4872 38.7789 43.0052 34.1189H49.7273ZM31.8826 7.29433V14.0354C22.2885 14.5982 14.5997 22.287 14.038 31.8812H7.29579C7.86865 18.5802 18.5817 7.86718 31.8826 7.29433ZM31.8826 16.2743V22.9963C27.2226 23.5144 23.5158 27.2211 22.9978 31.8812H16.2757C16.8307 23.52 23.5214 16.8292 31.8826 16.2743ZM31.8826 58.7046C18.5817 58.1329 7.86865 47.4198 7.29579 34.1189H14.0369C14.5997 43.7131 22.2885 51.4018 31.8826 51.9635V58.7046ZM31.8826 49.7258C23.5214 49.1709 16.8307 42.4801 16.2757 34.1189H22.9978C23.5158 38.7789 27.2226 42.4857 31.8826 43.0037V49.7258ZM33.0015 40.832C28.6838 40.832 25.1695 37.3177 25.1695 33C25.1695 28.6824 28.6838 25.168 33.0015 25.168C37.3192 25.168 40.8335 28.6824 40.8335 33C40.8335 37.3177 37.3192 40.832 33.0015 40.832ZM34.1204 58.7057V51.9646C43.7145 51.4018 51.4033 43.7131 51.965 34.1189H58.7061C58.1343 47.4198 47.4213 58.1329 34.1204 58.7057ZM51.9661 31.8812C51.4033 22.287 43.7145 14.5982 34.1204 14.0365V7.29433C47.4213 7.86718 58.1343 18.5802 58.7072 31.8812H51.9661Z" fill="url(#paint0_linear)"/>
<path d="M33.0006 27.4055C31.338 27.4055 29.992 27.9146 29.003 28.9204C27.3873 30.5618 27.4052 32.9181 27.4064 33.0177C27.4164 33.6297 27.9154 34.1187 28.5252 34.1187C28.5308 34.1187 28.5375 34.1187 28.5431 34.1187C29.1607 34.1086 29.6541 33.5995 29.6441 32.9819C29.6441 32.9662 29.6474 31.4547 30.5973 30.4891C31.159 29.9207 31.9444 29.6432 33.0006 29.6432C33.6194 29.6432 34.1195 29.1431 34.1195 28.5244C34.1195 27.9056 33.6194 27.4055 33.0006 27.4055Z" fill="url(#paint1_linear)"/>
</g>
<defs>
<linearGradient id="paint0_linear" x1="58.7882" y1="32.9928" x2="0.888577" y2="13.7994" gradientUnits="userSpaceOnUse">
<stop stop-color="#EC7A8F"/>
<stop offset="1" stop-color="#FCAF8C"/>
</linearGradient>
<linearGradient id="paint1_linear" x1="33.4305" y1="30.7613" x2="27.4408" y2="28.7758" gradientUnits="userSpaceOnUse">
<stop stop-color="#EC7A8F"/>
<stop offset="1" stop-color="#FCAF8C"/>
</linearGradient>
<clipPath id="clip0">
<rect x="0.554688" y="0.553223" width="64.8936" height="64.8936" fill="white"/>
</clipPath>
</defs>
</svg>
