<svg width="65" height="65" viewBox="0 0 65 65" fill="none" xmlns="http://www.w3.org/2000/svg">
<path d="M64.465 8.20387C64.4265 8.16756 56.7914 0.886162 56.7914 0.886162C56.4995 0.606104 56.1976 0.31665 55.6339 0.31665H24.896C23.9982 0.31665 23.2677 1.04701 23.2677 1.94482V6.94462L12.4342 8.80169C11.5658 8.95403 10.9819 9.78507 11.1323 10.6525L11.6821 13.8584C8.16083 15.0433 4.54559 16.2649 1.05552 17.5185C0.23083 17.8201 -0.201953 18.737 0.0923241 19.5667L7.03476 38.8656C7.1744 39.2539 7.54041 39.4958 7.93079 39.4958C8.03769 39.4958 8.14661 39.4776 8.253 39.4393C8.74786 39.2613 9.00469 38.7159 8.8267 38.221L1.98697 19.2075C5.27506 18.0303 8.68019 16.8781 12.008 15.758L15.2797 34.832L19.0444 56.799C19.1804 57.5744 19.862 58.1262 20.6313 58.1262C20.7184 58.1262 20.8068 58.119 20.8954 58.1044L31.0917 56.3546L39.0593 54.9889L27.0761 59.296L17.6263 62.6937L10.2874 42.281C10.1096 41.7861 9.5643 41.5293 9.06931 41.7072C8.57444 41.885 8.31762 42.4304 8.49548 42.9253L15.9385 63.628C16.1765 64.2791 16.7933 64.6838 17.4452 64.6838C17.6253 64.6838 17.8083 64.6528 17.9865 64.5877L27.7201 61.0881L49.8219 53.1441L54.0442 52.4204H63.3716C64.2694 52.4204 64.9999 51.6884 64.9999 50.7885V9.27675C65 8.70686 64.6908 8.41613 64.465 8.20387ZM61.9424 8.42934H57.1778L57.0597 8.42984C56.8316 8.43137 56.2975 8.4353 56.1621 8.30073C56.1308 8.26963 56.0943 8.16578 56.0943 7.97294L56.0832 2.84213L61.9424 8.42934ZM63.0957 50.5158H25.172V31.9595C25.172 31.4336 24.7457 31.0073 24.2199 31.0073C23.6941 31.0073 23.2677 31.4336 23.2677 31.9595V50.7883C23.2677 51.688 23.9982 52.4201 24.896 52.4201H42.7726L30.7698 54.4775L20.8697 56.1765L17.1566 34.5101L13.06 10.6264L23.2676 8.87659V27.5415C23.2676 28.0673 23.6939 28.4936 24.2198 28.4936C24.7456 28.4936 25.1719 28.0673 25.1719 27.5415V2.22082H54.1775L54.19 7.9751C54.19 8.67258 54.4021 9.23676 54.8204 9.65215C55.4632 10.2903 56.3718 10.3348 56.9358 10.3348C56.9843 10.3348 57.0303 10.3344 57.0733 10.3341L63.0957 10.3338V50.5158Z" fill="url(#paint0_linear)"/>
<path d="M29.7617 15.1008C29.7617 15.6267 30.188 16.053 30.7139 16.053H57.9372C58.463 16.053 58.8893 15.6267 58.8893 15.1008C58.8893 14.575 58.463 14.1487 57.9372 14.1487H30.7139C30.188 14.1487 29.7617 14.575 29.7617 15.1008Z" fill="url(#paint1_linear)"/>
<path d="M57.9372 20.9133H30.7139C30.188 20.9133 29.7617 21.3396 29.7617 21.8655C29.7617 22.3913 30.188 22.8176 30.7139 22.8176H57.9372C58.463 22.8176 58.8893 22.3913 58.8893 21.8655C58.8893 21.3396 58.463 20.9133 57.9372 20.9133Z" fill="url(#paint2_linear)"/>
<path d="M57.9372 27.6775H30.7139C30.188 27.6775 29.7617 28.1038 29.7617 28.6296C29.7617 29.1555 30.188 29.5818 30.7139 29.5818H57.9372C58.463 29.5818 58.8893 29.1555 58.8893 28.6296C58.8893 28.1038 58.463 27.6775 57.9372 27.6775Z" fill="url(#paint3_linear)"/>
<path d="M57.9372 34.4419H30.7139C30.188 34.4419 29.7617 34.8682 29.7617 35.394C29.7617 35.9199 30.188 36.3462 30.7139 36.3462H57.9372C58.463 36.3462 58.8893 35.9199 58.8893 35.394C58.8893 34.8682 58.463 34.4419 57.9372 34.4419Z" fill="url(#paint4_linear)"/>
<path d="M57.9372 41.2063H30.7139C30.188 41.2063 29.7617 41.6326 29.7617 42.1584C29.7617 42.6843 30.188 43.1106 30.7139 43.1106H57.9372C58.463 43.1106 58.8893 42.6843 58.8893 42.1584C58.8893 41.6326 58.463 41.2063 57.9372 41.2063Z" fill="url(#paint5_linear)"/>
<defs>
<linearGradient id="paint0_linear" x1="58.3289" y1="32.493" x2="0.447663" y2="13.1171" gradientUnits="userSpaceOnUse">
<stop stop-color="#EC7A8F"/>
<stop offset="1" stop-color="#FCAF8C"/>
</linearGradient>
<linearGradient id="paint1_linear" x1="55.8999" y1="15.1006" x2="54.82" y2="9.62491" gradientUnits="userSpaceOnUse">
<stop stop-color="#EC7A8F"/>
<stop offset="1" stop-color="#FCAF8C"/>
</linearGradient>
<linearGradient id="paint2_linear" x1="55.8999" y1="21.8653" x2="54.82" y2="16.3896" gradientUnits="userSpaceOnUse">
<stop stop-color="#EC7A8F"/>
<stop offset="1" stop-color="#FCAF8C"/>
</linearGradient>
<linearGradient id="paint3_linear" x1="55.8999" y1="28.6294" x2="54.82" y2="23.1537" gradientUnits="userSpaceOnUse">
<stop stop-color="#EC7A8F"/>
<stop offset="1" stop-color="#FCAF8C"/>
</linearGradient>
<linearGradient id="paint4_linear" x1="55.8999" y1="35.3938" x2="54.82" y2="29.9181" gradientUnits="userSpaceOnUse">
<stop stop-color="#EC7A8F"/>
<stop offset="1" stop-color="#FCAF8C"/>
</linearGradient>
<linearGradient id="paint5_linear" x1="55.8999" y1="42.1582" x2="54.82" y2="36.6825" gradientUnits="userSpaceOnUse">
<stop stop-color="#EC7A8F"/>
<stop offset="1" stop-color="#FCAF8C"/>
</linearGradient>
</defs>
</svg>
