<svg width="60" height="60" viewBox="0 0 60 60" fill="none" xmlns="http://www.w3.org/2000/svg">
<circle cx="30" cy="30" r="29.5232" stroke="url(#paint0_linear)" stroke-width="0.953697"/>
<g clip-path="url(#clip0)">
<path d="M30.2922 36.0907C29.6482 36.0478 28.9055 35.9349 28.3198 35.7653C28.2101 35.7335 27.7558 35.5665 27.6402 35.5135C25.601 34.5689 24.1804 32.5069 24.1804 30.1146C24.1804 26.8334 26.8499 24.1608 30.1332 24.1608C33.3874 24.1608 36.0388 26.7879 36.0844 30.0319H38.2349C38.1893 25.6026 34.5737 22.0129 30.1332 22.0129C25.6662 22.0129 22.0304 25.6466 22.0304 30.1146C22.0304 33.1949 23.7627 35.8739 26.2991 37.2426C26.7571 37.4848 27.4144 37.7345 27.6376 37.8029C28.3606 38.0181 29.248 38.1612 30.0378 38.2211C30.306 38.2413 31.2427 38.2519 31.5157 38.2529H46.325V36.1109H31.5406C31.3439 36.1109 30.4847 36.1035 30.2922 36.0907ZM31.5406 32.7274C31.3842 32.7274 30.5663 32.7221 30.4152 32.7094C30.1592 32.6876 29.7881 32.6495 29.5496 32.5949C29.2803 32.5228 29.0275 32.4274 28.9135 32.3648C28.1147 31.9328 27.5703 31.0879 27.5703 30.1146C27.5703 28.6988 28.7168 27.5506 30.1332 27.5506C31.5199 27.5506 32.6474 28.6537 32.6924 30.0319H34.7587C34.7152 27.5141 32.6627 25.4849 30.1332 25.4849C27.5756 25.4849 25.5024 27.5575 25.5024 30.1146C25.5024 31.918 26.5361 33.4753 28.0415 34.2381C28.2732 34.3738 28.7089 34.5159 28.8329 34.5482C29.258 34.6601 29.8289 34.7364 30.2922 34.7703C30.4634 34.7846 31.302 34.791 31.4791 34.792V34.7952H46.3245V32.7274H31.5406ZM20.7052 38.245H18.5404V24.1656H15.3769V22.0002H20.7052V38.245ZM13 25.2474V27.3296H15.3769V38.245H17.4569V25.2474H13Z" fill="url(#paint1_linear)"/>
<path d="M42.5007 22.1514C41.7209 22.1514 41.0742 22.7732 41.0742 23.5535C41.0742 24.3338 41.7209 24.9805 42.5007 24.9805C43.3043 24.9805 43.926 24.3338 43.926 23.5535C43.926 22.7732 43.3043 22.1514 42.5007 22.1514ZM42.5007 24.7504C41.8566 24.7504 41.3016 24.2442 41.3016 23.5535C41.3016 22.8978 41.8566 22.3788 42.5007 22.3788C43.1442 22.3788 43.6965 22.8978 43.6965 23.5535C43.6965 24.2442 43.1442 24.7504 42.5007 24.7504Z" fill="#EC7A8F"/>
<path d="M43.045 23.9374C43.045 23.78 43.0217 23.6337 42.8414 23.5759C43.0672 23.4975 43.0895 23.3496 43.0895 23.26C43.0895 22.898 42.7609 22.8518 42.6257 22.8518H42.0039V24.2539H42.2631V23.6788H42.4672C42.7609 23.6788 42.7852 23.8139 42.7852 23.9374C42.7852 24.1765 42.7852 24.2216 42.8414 24.2539H43.1012C43.045 24.1972 43.0672 24.1532 43.045 23.9374ZM42.569 23.4742H42.2631V23.0326H42.525C42.7063 23.0326 42.8292 23.0899 42.8292 23.26C42.8292 23.3496 42.7852 23.4742 42.569 23.4742" fill="#EC7A8F"/>
</g>
<defs>
<linearGradient id="paint0_linear" x1="53.8421" y1="29.9933" x2="0.308711" y2="12.2473" gradientUnits="userSpaceOnUse">
<stop stop-color="#EC7A8F"/>
<stop offset="1" stop-color="#FCAF8C"/>
</linearGradient>
<linearGradient id="paint1_linear" x1="42.9048" y1="30.1284" x2="20.3324" y2="45.4709" gradientUnits="userSpaceOnUse">
<stop stop-color="#EC7A8F"/>
<stop offset="1" stop-color="#FCAF8C"/>
</linearGradient>
<clipPath id="clip0">
<rect x="13" y="22" width="33.325" height="16.2528" fill="white"/>
</clipPath>
</defs>
</svg>
