<svg width="60" height="60" viewBox="0 0 60 60" fill="none" xmlns="http://www.w3.org/2000/svg">
<path d="M47.3793 26.8966C47.0361 26.8966 46.7586 27.174 46.7586 27.5172V29.3793H45.5017C45.1821 21.3166 38.6834 14.8179 30.6207 14.4983V13.2414H32.4828C32.826 13.2414 33.1034 12.9639 33.1034 12.6207C33.1034 12.2774 32.826 12 32.4828 12H27.5172C27.174 12 26.8966 12.2774 26.8966 12.6207C26.8966 12.9639 27.174 13.2414 27.5172 13.2414H29.3793V14.4983C21.3166 14.8179 14.8179 21.3166 14.4983 29.3793H13.2414V27.5172C13.2414 27.174 12.9639 26.8966 12.6207 26.8966C12.2774 26.8966 12 27.174 12 27.5172V32.4828C12 32.826 12.2774 33.1034 12.6207 33.1034C12.9639 33.1034 13.2414 32.826 13.2414 32.4828V30.6207H14.4983C14.8179 38.6834 21.3166 45.1821 29.3793 45.5017V46.7586H27.5172C27.174 46.7586 26.8966 47.0361 26.8966 47.3793C26.8966 47.7225 27.174 48 27.5172 48H32.4828C32.826 48 33.1034 47.7225 33.1034 47.3793C33.1034 47.0361 32.826 46.7586 32.4828 46.7586H30.6207V45.5017C38.6834 45.1821 45.1821 38.6834 45.5017 30.6207H46.7586V32.4828C46.7586 32.826 47.0361 33.1034 47.3793 33.1034C47.7225 33.1034 48 32.826 48 32.4828V27.5172C48 27.174 47.7225 26.8966 47.3793 26.8966ZM30.6207 20.7213C35.2591 21.0292 38.9708 24.7409 39.2787 29.3793H35.5496C35.2622 26.7941 33.2059 24.7378 30.6207 24.4504V20.7213ZM39.2787 30.6207C38.9708 35.2591 35.2591 38.9708 30.6207 39.2787V35.5496C33.2059 35.2622 35.2622 33.2059 35.5496 30.6207H39.2787ZM29.3793 15.7397V19.4793C24.0569 19.7915 19.7915 24.0569 19.4799 29.3793H15.7397C16.0574 22.0006 22.0006 16.0574 29.3793 15.7397ZM29.3793 20.7213V24.4504C26.7941 24.7378 24.7378 26.7941 24.4504 29.3793H20.7213C21.0292 24.7409 24.7409 21.0292 29.3793 20.7213ZM29.3793 44.2597C22.0006 43.9426 16.0574 37.9994 15.7397 30.6207H19.4793C19.7915 35.9431 24.0569 40.2085 29.3793 40.5201V44.2597ZM29.3793 39.2787C24.7409 38.9708 21.0292 35.2591 20.7213 30.6207H24.4504C24.7378 33.2059 26.7941 35.2622 29.3793 35.5496V39.2787ZM30 34.3448C27.6048 34.3448 25.6552 32.3952 25.6552 30C25.6552 27.6048 27.6048 25.6552 30 25.6552C32.3952 25.6552 34.3448 27.6048 34.3448 30C34.3448 32.3952 32.3952 34.3448 30 34.3448ZM30.6207 44.2603V40.5207C35.9431 40.2085 40.2085 35.9431 40.5201 30.6207H44.2597C43.9426 37.9994 37.9994 43.9425 30.6207 44.2603ZM40.5207 29.3793C40.2085 24.0569 35.9431 19.7915 30.6207 19.4799V15.7397C37.9994 16.0574 43.9425 22.0006 44.2603 29.3793H40.5207Z" fill="url(#paint0_linear)"/>
<path d="M30.0019 26.8965C29.0796 26.8965 28.3329 27.1789 27.7842 27.7369C26.8879 28.6474 26.8979 29.9546 26.8985 30.0099C26.9041 30.3494 27.1809 30.6206 27.5192 30.6206C27.5223 30.6206 27.526 30.6206 27.5291 30.6206C27.8717 30.615 28.1455 30.3326 28.1399 29.99C28.1399 29.9813 28.1417 29.1428 28.6687 28.6071C28.9803 28.2918 29.416 28.1379 30.0019 28.1379C30.3452 28.1379 30.6226 27.8604 30.6226 27.5172C30.6226 27.1739 30.3452 26.8965 30.0019 26.8965Z" fill="url(#paint1_linear)"/>
<circle cx="30" cy="30" r="29.5232" stroke="url(#paint2_linear)" stroke-width="0.953697"/>
<defs>
<linearGradient id="paint0_linear" x1="44.3053" y1="29.996" x2="12.1852" y2="19.3484" gradientUnits="userSpaceOnUse">
<stop stop-color="#EC7A8F"/>
<stop offset="1" stop-color="#FCAF8C"/>
</linearGradient>
<linearGradient id="paint1_linear" x1="30.2404" y1="28.7581" x2="26.9176" y2="27.6566" gradientUnits="userSpaceOnUse">
<stop stop-color="#EC7A8F"/>
<stop offset="1" stop-color="#FCAF8C"/>
</linearGradient>
<linearGradient id="paint2_linear" x1="53.8421" y1="29.9933" x2="0.308711" y2="12.2473" gradientUnits="userSpaceOnUse">
<stop stop-color="#EC7A8F"/>
<stop offset="1" stop-color="#FCAF8C"/>
</linearGradient>
</defs>
</svg>
