<svg width="60" height="60" viewBox="0 0 60 60" fill="none" xmlns="http://www.w3.org/2000/svg">
<g clip-path="url(#clip0)">
<path d="M29.4008 15.5999H33.0008C33.3322 15.5999 33.6008 15.3313 33.6008 14.9999C33.6008 14.6685 33.3322 14.3999 33.0008 14.3999H29.4008C29.0694 14.3999 28.8008 14.6685 28.8008 14.9999C28.8008 15.3313 29.0694 15.5999 29.4008 15.5999Z" fill="url(#paint0_linear)"/>
<path d="M35.4008 15.5999H36.6008C36.9322 15.5999 37.2008 15.3313 37.2008 14.9999C37.2008 14.6685 36.9322 14.3999 36.6008 14.3999H35.4008C35.0694 14.3999 34.8008 14.6685 34.8008 14.9999C34.8008 15.3313 35.0694 15.5999 35.4008 15.5999Z" fill="url(#paint1_linear)"/>
<path d="M17.4008 24H22.8008C23.1322 24 23.4008 23.7314 23.4008 23.4C23.4008 23.0687 23.1322 22.8 22.8008 22.8H17.4008C17.0694 22.8 16.8008 23.0687 16.8008 23.4C16.8008 23.7314 17.0694 24 17.4008 24Z" fill="url(#paint2_linear)"/>
<path d="M25.7992 24H30.5992C30.9306 24 31.1992 23.7314 31.1992 23.4C31.1992 23.0687 30.9306 22.8 30.5992 22.8H25.7992C25.4678 22.8 25.1992 23.0687 25.1992 23.4C25.1992 23.7314 25.4678 24 25.7992 24Z" fill="url(#paint3_linear)"/>
<path d="M17.4008 26.9998H26.4008C26.7322 26.9998 27.0008 26.7312 27.0008 26.3998C27.0008 26.0684 26.7322 25.7998 26.4008 25.7998H17.4008C17.0694 25.7998 16.8008 26.0684 16.8008 26.3998C16.8008 26.7312 17.0694 26.9998 17.4008 26.9998Z" fill="url(#paint4_linear)"/>
<path d="M22.8008 28.7998H17.4008C17.0694 28.7998 16.8008 29.0684 16.8008 29.3998C16.8008 29.7312 17.0694 29.9998 17.4008 29.9998H22.8008C23.1322 29.9998 23.4008 29.7312 23.4008 29.3998C23.4008 29.0684 23.1322 28.7998 22.8008 28.7998Z" fill="url(#paint5_linear)"/>
<path d="M45.5934 39.825C45.8954 39.0619 46.0503 38.2486 46.05 37.428C46.0336 34.7554 44.4471 32.3423 42 31.2678V26.4H43.7814C44.2386 26.4001 44.656 26.1404 44.8581 25.7304C45.0601 25.3203 45.0116 24.831 44.733 24.4686L39.951 18.2526C39.8555 18.1326 39.7359 18.0338 39.6 17.9628V15C39.598 13.344 38.256 12.002 36.6 12H20.4C20.2409 12 20.0883 12.0633 19.9758 12.1758L12.1758 19.9758C12.0633 20.0883 12 20.2409 12 20.4V42.6C12.002 44.256 13.344 45.598 15 45.6H23.8872C24.6685 47.0896 26.218 48.0164 27.9 48H43.5C45.9391 48.0412 47.9517 46.101 48 43.662C47.9863 42.0313 47.0555 40.5472 45.5934 39.825ZM43.7814 25.2H42C41.3373 25.2 40.8 25.7373 40.8 26.4V39H37.2V26.4C37.2 25.7373 36.6627 25.2 36 25.2H34.2186L39 18.984L43.7814 25.2ZM19.8 14.0484V18C19.8 18.9941 18.9941 19.8 18 19.8H14.0484L19.8 14.0484ZM13.2 42.6V21H18C19.656 20.998 20.998 19.656 21 18V13.2H36.6C37.5941 13.2 38.4 14.0059 38.4 15V17.9628C38.2641 18.0338 38.1445 18.1326 38.049 18.2526L33.2676 24.468C32.9887 24.8303 32.9399 25.3197 33.1418 25.73C33.3438 26.1402 33.7613 26.4 34.2186 26.4H36V31.2216C34.7826 31.7551 33.7404 32.621 32.9928 33.72C32.2261 33.3068 31.3689 33.0904 30.498 33.09C27.7078 33.0428 25.4055 35.262 25.35 38.052C25.3509 38.6778 25.4731 39.2974 25.71 39.8766C24.3045 40.6198 23.4181 42.0722 23.4 43.662C23.4006 43.9095 23.423 44.1565 23.4672 44.4H15C14.0059 44.4 13.2 43.5941 13.2 42.6ZM43.5 46.8H27.9C26.5565 46.8108 25.3387 46.0114 24.8142 44.7744C24.6714 44.421 24.5986 44.0432 24.6 43.662C24.6127 42.3332 25.4657 41.1582 26.7252 40.7346C26.8916 40.6741 27.0228 40.5432 27.0836 40.3769C27.1445 40.2107 27.1288 40.026 27.0408 39.8724C26.7197 39.3194 26.5504 38.6914 26.55 38.052C26.605 35.9246 28.3704 34.2424 30.498 34.29C31.3394 34.2902 32.1602 34.5502 32.8482 35.0346C32.9883 35.131 33.1624 35.1643 33.3282 35.1264C33.4941 35.0876 33.6357 34.98 33.7176 34.8306C34.2482 33.8734 35.0397 33.0865 36 32.5614V39C36 39.6627 36.5373 40.2 37.2 40.2H40.8C41.4627 40.2 42 39.6627 42 39V32.6124C43.7489 33.5862 44.8379 35.4263 44.85 37.428C44.8484 38.2773 44.6463 39.1142 44.2602 39.8706C44.1815 40.0262 44.1743 40.2083 44.2405 40.3695C44.3067 40.5308 44.4399 40.6553 44.6052 40.7106C45.8951 41.1205 46.7787 42.3088 46.8 43.662C46.7519 45.4383 45.2765 46.8413 43.5 46.8Z" fill="url(#paint6_linear)"/>
</g>
<circle cx="30" cy="30" r="29.5232" stroke="url(#paint7_linear)" stroke-width="0.953697"/>
<defs>
<linearGradient id="paint0_linear" x1="33.1082" y1="14.9998" x2="31.3848" y2="12.7147" gradientUnits="userSpaceOnUse">
<stop stop-color="#EC7A8F"/>
<stop offset="1" stop-color="#FCAF8C"/>
</linearGradient>
<linearGradient id="paint1_linear" x1="36.9545" y1="14.9998" x2="35.3035" y2="13.9052" gradientUnits="userSpaceOnUse">
<stop stop-color="#EC7A8F"/>
<stop offset="1" stop-color="#FCAF8C"/>
</linearGradient>
<linearGradient id="paint2_linear" x1="22.7234" y1="23.3999" x2="21.2119" y2="20.6442" gradientUnits="userSpaceOnUse">
<stop stop-color="#EC7A8F"/>
<stop offset="1" stop-color="#FCAF8C"/>
</linearGradient>
<linearGradient id="paint3_linear" x1="30.5834" y1="23.3999" x2="28.9978" y2="20.7718" gradientUnits="userSpaceOnUse">
<stop stop-color="#EC7A8F"/>
<stop offset="1" stop-color="#FCAF8C"/>
</linearGradient>
<linearGradient id="paint4_linear" x1="25.9539" y1="26.3997" x2="24.824" y2="23.2159" gradientUnits="userSpaceOnUse">
<stop stop-color="#EC7A8F"/>
<stop offset="1" stop-color="#FCAF8C"/>
</linearGradient>
<linearGradient id="paint5_linear" x1="22.7234" y1="29.3997" x2="21.2119" y2="26.6439" gradientUnits="userSpaceOnUse">
<stop stop-color="#EC7A8F"/>
<stop offset="1" stop-color="#FCAF8C"/>
</linearGradient>
<linearGradient id="paint6_linear" x1="44.3053" y1="29.9963" x2="12.1851" y2="19.3489" gradientUnits="userSpaceOnUse">
<stop stop-color="#EC7A8F"/>
<stop offset="1" stop-color="#FCAF8C"/>
</linearGradient>
<linearGradient id="paint7_linear" x1="53.8421" y1="29.9933" x2="0.308711" y2="12.2473" gradientUnits="userSpaceOnUse">
<stop stop-color="#EC7A8F"/>
<stop offset="1" stop-color="#FCAF8C"/>
</linearGradient>
<clipPath id="clip0">
<rect x="12" y="12" width="36" height="36" fill="white"/>
</clipPath>
</defs>
</svg>
