<svg width="50" height="50" viewBox="0 0 50 50" fill="none" xmlns="http://www.w3.org/2000/svg">
<g clip-path="url(#clip0)">
<path d="M26.034 28.3258C24.166 28.3171 22.3102 28.0245 20.5303 27.4578C17.6862 26.5064 15.5738 24.0987 15.0004 21.155C14.373 18.1329 15.5164 14.9375 18.1368 12.3883C18.418 12.1145 18.7102 11.8522 19.0133 11.6014C21.6964 9.35521 25.3136 8.5746 28.6842 9.51443C31.9473 10.5559 34.2021 13.5381 34.3148 16.9615C34.437 18.9321 33.7947 20.874 32.5216 22.3831C31.5397 23.62 29.9487 24.2042 28.3997 23.8968C27.7662 23.7653 27.2134 23.3816 26.8688 22.8341C26.5595 22.3022 26.4802 21.6674 26.6491 21.0758C27.3778 18.3211 28.1188 14.1348 28.1261 14.0924C28.1779 13.7992 28.3821 13.5558 28.662 13.454C28.9418 13.3522 29.2547 13.4074 29.4828 13.5989C29.7109 13.7903 29.8195 14.0889 29.7678 14.3822C29.7368 14.5563 29.0073 18.6798 28.2606 21.5018C28.2073 21.6581 28.2207 21.8296 28.2976 21.9758C28.4128 22.1352 28.5867 22.2424 28.7809 22.2736C29.7292 22.4319 30.6871 22.0514 31.2683 21.2857C32.257 20.1029 32.7524 18.5849 32.6517 17.0466C32.5702 14.3216 30.7832 11.9425 28.1888 11.1049C25.3569 10.326 22.3231 10.9914 20.0771 12.8841C19.8093 13.1063 19.5489 13.339 19.2991 13.5823C18.0036 14.8425 15.9348 17.4573 16.6319 20.8157C17.1003 23.1619 18.776 25.0847 21.0362 25.8694C24.9445 27.1162 30.5605 27.2663 33.5195 23.5871C33.8102 23.237 34.3281 23.1848 34.6827 23.47C35.0374 23.7551 35.0978 24.272 34.8183 24.6312C32.6303 27.3523 29.3006 28.3258 26.034 28.3258Z" fill="url(#paint0_linear)"/>
<path d="M23.1775 24.0045C22.2967 24.0196 21.4375 23.7308 20.7447 23.1866C19.1452 21.9065 19.1012 19.6827 19.5496 18.1683C19.7006 17.664 19.9034 17.1766 20.1547 16.714C20.7799 15.4524 21.7797 14.4149 23.0173 13.7432C24.5584 12.9436 26.4413 13.2468 27.6534 14.4899C28.2548 15.1489 28.7078 15.9293 28.9818 16.7783C29.1269 17.2092 28.8999 17.6768 28.4716 17.8294C28.0433 17.9819 27.5718 17.763 27.4119 17.3374C27.2144 16.7102 26.886 16.132 26.4484 15.641C25.7417 14.9183 24.6406 14.7539 23.7536 15.2386C22.8255 15.762 22.0797 16.5566 21.6161 17.516C21.4213 17.8754 21.2639 18.254 21.1465 18.6456C20.8227 19.741 20.8938 21.1706 21.7874 21.8862C22.7643 22.6707 24.4124 22.339 25.3397 21.5391C26.0307 20.917 26.6245 20.1947 27.1011 19.3963C27.2554 19.1377 27.5373 18.9825 27.8384 18.9903C28.1395 18.9982 28.4129 19.1679 28.5536 19.4342C28.6942 19.7006 28.6802 20.0221 28.5169 20.2752C27.9524 21.2159 27.2495 22.0663 26.4319 22.7979C25.5207 23.5668 24.3697 23.9935 23.1775 24.0045Z" fill="url(#paint1_linear)"/>
<path d="M47.5 50.0002H2.5C1.11992 49.9987 0.00151559 48.8803 0 47.5002V16.6669C1.31e-05 16.3437 0.186847 16.0497 0.479403 15.9125C0.771958 15.7752 1.11749 15.8195 1.366 16.026L21.8136 33.0198C23.6637 34.5478 26.3381 34.5473 28.1877 33.0186L48.6333 16.026C48.8818 15.8191 49.2276 15.7745 49.5205 15.9118C49.8133 16.0491 50.0002 16.3435 50 16.6669V47.5002C49.9985 48.8803 48.8801 49.9987 47.5 50.0002ZM1.66667 18.443V47.5002C1.66726 47.9602 2.04001 48.3329 2.5 48.3335H47.5C47.9601 48.3331 48.3329 47.9603 48.3333 47.5002V18.443L29.2517 34.3013C26.7846 36.3402 23.2173 36.3408 20.7495 34.3025L1.66667 18.443Z" fill="url(#paint2_linear)"/>
<path d="M0.834149 17.4999C0.471174 17.5002 0.149737 17.2656 0.039454 16.9197C-0.0708286 16.5739 0.055414 16.1965 0.351566 15.9866L7.85157 10.67C8.22706 10.4097 8.74209 10.5003 9.00622 10.8731C9.27034 11.2459 9.18508 11.7618 8.81507 12.0298L1.31507 17.3465C1.17463 17.4464 1.00651 17.5 0.834149 17.4999Z" fill="url(#paint3_linear)"/>
<path d="M49.1654 17.4999C48.993 17.5 48.8249 17.4464 48.6844 17.3465L41.1844 12.0298C40.8144 11.7618 40.7292 11.2459 40.9933 10.8731C41.2574 10.5003 41.7724 10.4097 42.1479 10.67L49.6479 15.9866C49.9441 16.1965 50.0703 16.5739 49.96 16.9197C49.8498 17.2656 49.5283 17.5002 49.1654 17.4999Z" fill="url(#paint4_linear)"/>
<path d="M32.7014 5.83344C32.5289 5.83353 32.3606 5.77991 32.22 5.68002L28.2366 2.85502C26.3876 1.29251 23.6856 1.27623 21.8178 2.81636L17.7845 5.68011C17.5415 5.85237 17.2252 5.88195 16.9545 5.75772C16.6839 5.63348 16.5001 5.3743 16.4724 5.0778C16.4447 4.7813 16.5772 4.49253 16.8201 4.32027L20.8035 1.49527C23.2648 -0.517256 26.8077 -0.501248 29.2508 1.53344L33.1841 4.31994C33.4805 4.52976 33.6069 4.90736 33.4966 5.25334C33.3862 5.59932 33.0645 5.834 32.7014 5.83344Z" fill="url(#paint5_linear)"/>
<path d="M1.37707 49.5504C1.02588 49.5507 0.712186 49.3308 0.592714 49.0005C0.473242 48.6703 0.573636 48.3006 0.843739 48.0761L19.8604 32.2761C20.0889 32.0818 20.4042 32.0253 20.686 32.1282C20.9678 32.231 21.1725 32.4774 21.2221 32.7732C21.2717 33.069 21.1585 33.3687 20.9257 33.5578L1.90899 49.3578C1.75968 49.4823 1.57145 49.5504 1.37707 49.5504Z" fill="url(#paint6_linear)"/>
<path d="M48.6255 49.5503C48.4313 49.5504 48.2432 49.4823 48.0941 49.3578L29.0775 33.5578C28.8446 33.3687 28.7314 33.069 28.781 32.7732C28.8306 32.4774 29.0354 32.231 29.3171 32.1282C29.5989 32.0253 29.9142 32.0818 30.1427 32.2761L49.1589 48.0761C49.429 48.3006 49.5294 48.6703 49.4099 49.0005C49.2904 49.3308 48.9767 49.5507 48.6255 49.5504V49.5503Z" fill="url(#paint7_linear)"/>
<path d="M41.6667 23.7337C41.2064 23.7337 40.8333 23.3606 40.8333 22.9004V5.84022C40.8309 5.85772 40.7975 5.83414 40.7417 5.83372H9.25833C9.2215 5.83146 9.18535 5.84441 9.15833 5.86955L9.16667 22.9004C9.16667 23.3606 8.79357 23.7337 8.33333 23.7337C7.8731 23.7337 7.5 23.3606 7.5 22.9004V5.83372C7.52688 4.88863 8.31316 4.14335 9.25833 4.16705H40.7417C41.6868 4.14344 42.473 4.88867 42.5 5.83372V22.9004C42.5 23.3606 42.1269 23.7337 41.6667 23.7337Z" fill="url(#paint8_linear)"/>
</g>
<defs>
<linearGradient id="paint0_linear" x1="32.9248" y1="18.7227" x2="15.1165" y2="12.5242" gradientUnits="userSpaceOnUse">
<stop stop-color="#EC7A8F"/>
<stop offset="1" stop-color="#FCAF8C"/>
</linearGradient>
<linearGradient id="paint1_linear" x1="28.0279" y1="18.6515" x2="19.2014" y2="15.9945" gradientUnits="userSpaceOnUse">
<stop stop-color="#EC7A8F"/>
<stop offset="1" stop-color="#FCAF8C"/>
</linearGradient>
<linearGradient id="paint2_linear" x1="44.8684" y1="32.9128" x2="4.78721" y2="13.4692" gradientUnits="userSpaceOnUse">
<stop stop-color="#EC7A8F"/>
<stop offset="1" stop-color="#FCAF8C"/>
</linearGradient>
<linearGradient id="paint3_linear" x1="8.21959" y1="14.0099" x2="0.592947" y2="10.6915" gradientUnits="userSpaceOnUse">
<stop stop-color="#EC7A8F"/>
<stop offset="1" stop-color="#FCAF8C"/>
</linearGradient>
<linearGradient id="paint4_linear" x1="49.0594" y1="14.0099" x2="41.4328" y2="10.6915" gradientUnits="userSpaceOnUse">
<stop stop-color="#EC7A8F"/>
<stop offset="1" stop-color="#FCAF8C"/>
</linearGradient>
<linearGradient id="paint5_linear" x1="31.7844" y1="2.9145" x2="23.07" y2="-5.53198" gradientUnits="userSpaceOnUse">
<stop stop-color="#EC7A8F"/>
<stop offset="1" stop-color="#FCAF8C"/>
</linearGradient>
<linearGradient id="paint6_linear" x1="19.1101" y1="40.8121" x2="1.35648" y2="33.843" gradientUnits="userSpaceOnUse">
<stop stop-color="#EC7A8F"/>
<stop offset="1" stop-color="#FCAF8C"/>
</linearGradient>
<linearGradient id="paint7_linear" x1="47.3362" y1="40.8121" x2="29.5829" y2="33.8433" gradientUnits="userSpaceOnUse">
<stop stop-color="#EC7A8F"/>
<stop offset="1" stop-color="#FCAF8C"/>
</linearGradient>
<linearGradient id="paint8_linear" x1="38.9079" y1="13.9479" x2="13.2644" y2="-1.25728" gradientUnits="userSpaceOnUse">
<stop stop-color="#EC7A8F"/>
<stop offset="1" stop-color="#FCAF8C"/>
</linearGradient>
<clipPath id="clip0">
<rect width="50" height="50" fill="white"/>
</clipPath>
</defs>
</svg>
