<svg width="50" height="50" viewBox="0 0 50 50" fill="none" xmlns="http://www.w3.org/2000/svg">
<g clip-path="url(#clip0)">
<path d="M31.4572 31.9747C30.2605 31.3118 28.8033 31.5522 27.8767 32.4687L27.8771 27.1471L29.0834 27.781C29.8293 28.1732 30.7181 28.1023 31.3932 27.594C32.0506 27.0991 32.3541 26.2614 32.215 25.4504L31.5067 21.3185C31.4677 21.091 31.5432 20.8588 31.709 20.6974L34.7463 17.7361C35.3405 17.1569 35.5503 16.3066 35.2939 15.5172C35.0372 14.7278 34.3677 14.1634 33.5463 14.0442L29.3494 13.435C29.1201 13.4015 28.9222 13.2577 28.82 13.0511L26.943 9.24629C26.5758 8.50225 25.8321 8.04014 25.0022 8.04004C25.0021 8.04004 25.0021 8.04004 25.0021 8.04004C24.1721 8.04004 23.4283 8.50225 23.061 9.24629L21.1833 13.0507C21.0809 13.2579 20.8833 13.4017 20.6555 13.4349L16.4577 14.0442C15.6363 14.1635 14.9667 14.7278 14.7103 15.5171C14.4536 16.3065 14.6634 17.1568 15.2577 17.736L18.2953 20.6977C18.4609 20.8589 18.5364 21.0909 18.4972 21.3187L17.7807 25.4998C17.6403 26.3179 17.9701 27.129 18.6415 27.6167C19.0208 27.8922 19.4646 28.0322 19.9112 28.0321C20.2552 28.0321 20.601 27.9491 20.9205 27.7811L22.4192 26.9934V29.4937C21.9716 29.2581 21.451 29.1432 20.9008 29.1926C20.361 29.241 19.8432 29.4514 19.4249 29.796C19.2303 29.9563 19.0609 30.1388 18.9202 30.3377C18.4276 29.9187 17.8088 29.6903 17.1548 29.6903C16.4263 29.6903 15.7408 29.9745 15.2256 30.4898C14.8064 30.9079 14.5402 31.4387 14.4553 32.0145C14.0625 31.802 13.6209 31.6893 13.1629 31.6893C13.1604 31.6893 13.1576 31.6893 13.1553 31.6893C12.4284 31.6893 11.7444 31.9729 11.2289 32.4885C10.7123 33.0051 10.4285 33.691 10.4297 34.4185V39.0267C10.4297 39.4895 10.4598 39.9646 10.5193 40.4395C10.5787 40.9099 10.6675 41.3829 10.7831 41.8455C10.8812 42.2374 11.2787 42.4758 11.67 42.3775C12.0618 42.2796 12.3 41.8825 12.2022 41.4907C12.1006 41.0845 12.0227 40.6691 11.9706 40.2569C11.9188 39.8429 11.8924 39.429 11.8924 39.0267V34.417C11.8918 34.0799 12.0235 33.7622 12.2633 33.5226C12.5024 33.2834 12.8191 33.1518 13.1573 33.1518H13.1608C13.5275 33.1518 13.8705 33.3069 14.1147 33.5862C14.308 33.8074 14.4093 34.0944 14.4241 34.3879L14.4258 34.4203V35.4311C14.4258 35.8315 14.7344 36.1807 15.1347 36.1927C15.5488 36.2051 15.8884 35.873 15.8884 35.4617L15.8883 32.4195C15.8883 32.0811 16.0198 31.7635 16.2592 31.5247C16.5942 31.1896 17.082 31.065 17.5632 31.2169C17.6262 31.2368 17.6874 31.2631 17.7453 31.295C18.1755 31.5327 18.4216 31.9567 18.4224 32.4183C18.4224 32.4188 18.4223 32.4193 18.4223 32.4199V34.5944C18.4223 34.9949 18.7309 35.344 19.1312 35.3561C19.5453 35.3685 19.8849 35.0364 19.8849 34.6251L19.8851 31.9411C19.8851 31.6393 19.9792 31.3406 20.1714 31.1078C20.4172 30.81 20.7717 30.6438 21.1518 30.6438C21.8484 30.6438 22.4154 31.2086 22.419 31.9039C22.419 31.9062 22.4188 31.9083 22.4188 31.9105V35.2451C22.4188 35.6456 22.7273 35.9947 23.1276 36.0067C23.5418 36.0191 23.8814 35.6871 23.8814 35.2758L23.882 24.8364C23.882 24.1386 24.4502 23.5708 25.1486 23.5708C25.4865 23.5708 25.8043 23.7025 26.0442 23.9423C26.2829 24.1805 26.4147 24.4987 26.4153 24.8374L26.4149 39.1555C26.4149 39.5668 26.7545 39.8988 27.1687 39.8864C27.5689 39.8745 27.8775 39.5253 27.8775 39.1248V36.8061C27.8775 35.7861 28.1318 34.7817 28.6245 33.8887C28.6301 33.8786 28.6356 33.8685 28.6413 33.8583C29.0557 33.1108 30.0014 32.8399 30.7486 33.2539C31.4958 33.6685 31.7665 34.6145 31.3522 35.3623C30.6915 36.553 30.6725 38.9002 30.6725 39.1604C30.6724 39.182 30.653 41.346 29.8687 43.4897C28.8739 46.2083 27.1514 47.5867 24.7488 47.5867H18.797C15.8432 47.5867 14.1354 45.542 13.3733 44.306C13.1649 43.9679 12.7238 43.8329 12.3777 44.0278C12.0147 44.2322 11.8966 44.695 12.1122 45.0473C13.6919 47.628 16.066 49.0494 18.797 49.0494H24.7488C27.7863 49.0494 30.0316 47.3007 31.2421 43.9924C32.1134 41.6112 32.1345 39.2663 32.135 39.1642C32.1353 38.3138 32.2703 36.7224 32.6313 36.0717C33.4359 34.6184 32.9097 32.7807 31.4572 31.9747ZM25.1481 22.1081C23.6433 22.1081 22.4189 23.332 22.4189 24.8363V25.341L20.2397 26.4865C19.998 26.6137 19.7217 26.5937 19.501 26.4333C19.2801 26.2729 19.1758 26.0163 19.2221 25.7469L19.9386 21.5661C20.0594 20.8637 19.8265 20.1473 19.3158 19.65L16.2785 16.6887C16.0829 16.498 16.0167 16.229 16.1011 15.9691C16.1856 15.7094 16.3973 15.5309 16.6677 15.4916L20.8662 14.882C21.5704 14.7791 22.179 14.3366 22.4946 13.6981L24.3726 9.89346C24.4934 9.64863 24.7287 9.50244 25.002 9.50244C25.2752 9.50244 25.5105 9.64863 25.6313 9.89326L27.5085 13.6984C27.8237 14.3365 28.4328 14.779 29.1385 14.8821L33.3361 15.4915C33.6064 15.5308 33.8184 15.7093 33.9028 15.969C33.9873 16.2289 33.9209 16.4979 33.7253 16.6886L30.6882 19.6496C30.1775 20.1472 29.9446 20.8635 30.0651 21.5655L30.7818 25.7467C30.8281 26.016 30.7237 26.2726 30.5029 26.433C30.282 26.5934 30.006 26.6133 29.7639 26.486L27.8771 25.4947L27.8772 24.8357C27.876 24.1054 27.5916 23.4202 27.0771 22.9069C26.5616 22.3919 25.8766 22.1081 25.1481 22.1081Z" fill="url(#paint0_linear)"/>
<path d="M11.2524 15.622C11.6142 15.622 11.9737 15.5086 12.2811 15.2853C12.8248 14.8902 13.0921 14.2333 12.9783 13.5709L12.4672 10.5905C12.4511 10.4964 12.4823 10.4003 12.5508 10.3336L14.716 8.22295C15.1973 7.75371 15.3673 7.06523 15.1596 6.42588C14.9519 5.78662 14.4096 5.32959 13.7444 5.23291L10.7522 4.79805C10.6575 4.78428 10.5757 4.7249 10.5334 4.63916L9.19532 1.92773C8.89786 1.3251 8.29552 0.950684 7.62345 0.950684C6.95128 0.950684 6.34893 1.3251 6.05147 1.92783L4.71329 4.63926C4.671 4.725 4.58917 4.78437 4.49464 4.79814L1.50225 5.23301C0.837118 5.32959 0.294833 5.78672 0.087118 6.42598C-0.120597 7.06523 0.0493251 7.75381 0.530673 8.22305L2.69591 10.3337C2.76436 10.4005 2.79561 10.4965 2.7795 10.5906L2.26827 13.571C2.1547 14.2335 2.42198 14.8904 2.96563 15.2854C3.50948 15.6805 4.21661 15.7315 4.81173 15.4188L7.48819 14.0117C7.57276 13.9672 7.67374 13.9673 7.75831 14.0117L10.4348 15.4188C10.6938 15.5548 10.9737 15.622 11.2524 15.622ZM7.62335 12.5156C7.34327 12.5156 7.06309 12.5828 6.80772 12.717L4.13126 14.1241C3.99229 14.1971 3.88009 14.1416 3.8255 14.1021C3.771 14.0624 3.6835 13.9728 3.70997 13.8181L4.2211 10.8378C4.31866 10.269 4.13028 9.68896 3.717 9.28623L1.55177 7.17559C1.43927 7.06592 1.45743 6.94209 1.47823 6.87793C1.49913 6.81387 1.55714 6.70293 1.71261 6.68037L4.70509 6.24551C5.27608 6.1625 5.76954 5.804 6.02491 5.28662L7.363 2.5751C7.43253 2.43428 7.55587 2.41318 7.62345 2.41318C7.69073 2.41318 7.81427 2.43418 7.8838 2.575L9.22198 5.28652C9.47735 5.804 9.97081 6.1625 10.5419 6.24541L13.5343 6.68027C13.6897 6.70293 13.7478 6.81377 13.7687 6.87783C13.7896 6.94199 13.8076 7.06582 13.6951 7.17549L11.5299 9.28613C11.1166 9.68896 10.9282 10.2689 11.0258 10.8377L11.5368 13.818C11.5634 13.9728 11.4759 14.0623 11.4214 14.102C11.3667 14.1416 11.2544 14.1971 11.1156 14.124L8.43917 12.717C8.1837 12.5828 7.90352 12.5156 7.62335 12.5156Z" fill="url(#paint1_linear)"/>
<path d="M49.4704 8.22275C49.9512 7.75361 50.1208 7.06514 49.913 6.42607C49.7052 5.78711 49.1632 5.32998 48.4985 5.2333L47.112 5.03145C46.7123 4.97383 46.3412 5.2501 46.2829 5.6498C46.2247 6.04951 46.5016 6.4207 46.9012 6.47881L48.2878 6.68066C48.443 6.70322 48.5012 6.81416 48.5221 6.87832C48.543 6.94248 48.5611 7.0665 48.4492 7.17568L46.2832 9.28613C45.8694 9.68994 45.6813 10.2706 45.7797 10.838L46.2907 13.8179C46.3173 13.9726 46.2297 14.0622 46.175 14.1019C46.1203 14.1417 46.0078 14.1975 45.8687 14.1243L43.1932 12.7174C42.682 12.4483 42.0716 12.4484 41.5605 12.7173L38.8851 14.1242C38.7458 14.1974 38.6337 14.1416 38.5792 14.1021C38.5244 14.0623 38.4365 13.9724 38.4629 13.8179L38.975 10.8372C39.072 10.2688 38.8833 9.68887 38.4701 9.28564L36.3053 7.17549C36.1929 7.06592 36.211 6.94209 36.2317 6.87793C36.2526 6.81387 36.3105 6.70303 36.4656 6.68047L39.4591 6.24551C40.0292 6.16191 40.5221 5.80381 40.7781 5.28672L42.1157 2.57559C42.1856 2.43428 42.3092 2.41318 42.3767 2.41318C42.4443 2.41318 42.5679 2.43428 42.6375 2.575L43.6563 4.64121C43.8349 5.00342 44.2733 5.15244 44.6357 4.97363C44.9979 4.79502 45.1468 4.35654 44.9682 3.99434L43.9491 1.92764C43.6513 1.325 43.0488 0.950684 42.3769 0.950684C41.7051 0.950684 41.1026 1.325 40.8046 1.92813L39.4673 4.63877C39.4246 4.7248 39.3424 4.78447 39.2481 4.79834L36.2555 5.2332C35.5905 5.32998 35.0485 5.78711 34.8409 6.42637C34.6333 7.06562 34.8035 7.7541 35.2848 8.22305L37.4491 10.3328C37.5181 10.4001 37.5496 10.4968 37.5336 10.5905L37.0215 13.5712C36.9085 14.2338 37.1762 14.8907 37.7201 15.2856C38.2638 15.6804 38.9709 15.7314 39.5659 15.4188L42.2416 14.0117C42.3264 13.9672 42.4275 13.9672 42.5123 14.0118L45.1882 15.419C45.4469 15.555 45.7268 15.6221 46.0054 15.6221C46.3676 15.6221 46.7274 15.5085 47.0349 15.285C47.5787 14.8897 47.8459 14.2327 47.7321 13.5705L47.2209 10.5894C47.2046 10.4957 47.2359 10.3998 47.3042 10.3332L49.4704 8.22275Z" fill="url(#paint2_linear)"/>
<path d="M39.153 23.9946H35.1728C34.7688 23.9946 34.4414 24.3221 34.4414 24.726C34.4414 25.1299 34.7688 25.4573 35.1728 25.4573H39.153C39.5569 25.4573 39.8844 25.1299 39.8844 24.726C39.8844 24.3221 39.557 23.9946 39.153 23.9946Z" fill="url(#paint3_linear)"/>
<path d="M34.0062 22.7818C34.1488 22.9827 34.3742 23.0898 34.6031 23.0898C34.7495 23.0898 34.8974 23.046 35.0258 22.9548L37.5964 21.1299C37.9257 20.8961 38.0031 20.4396 37.7694 20.1103C37.5357 19.781 37.0791 19.7035 36.7497 19.9372L34.1791 21.7621C33.8498 21.996 33.7723 22.4525 34.0062 22.7818Z" fill="url(#paint4_linear)"/>
<path d="M37.5964 28.3218L35.0258 26.4969C34.6962 26.263 34.2399 26.3406 34.0062 26.6698C33.7723 26.9992 33.8498 27.4557 34.1791 27.6895L36.7497 29.5145C36.8782 29.6057 37.0261 29.6495 37.1724 29.6495C37.4013 29.6495 37.6268 29.5424 37.7694 29.3415C38.0031 29.0121 37.9257 28.5557 37.5964 28.3218Z" fill="url(#paint5_linear)"/>
<path d="M14.8288 25.4573C15.2327 25.4573 15.5602 25.1299 15.5602 24.726C15.5602 24.3221 15.2328 23.9946 14.8288 23.9946H10.8485C10.4446 23.9946 10.1172 24.3221 10.1172 24.726C10.1172 25.1299 10.4445 25.4573 10.8485 25.4573H14.8288Z" fill="url(#paint6_linear)"/>
<path d="M15.8191 21.7622L13.2485 19.9373C12.9188 19.7034 12.4625 19.781 12.2288 20.1104C11.9949 20.4397 12.0725 20.8962 12.4018 21.13L14.9724 22.9549C15.1009 23.0461 15.2488 23.09 15.395 23.09C15.624 23.09 15.8494 22.9828 15.992 22.782C16.2258 22.4526 16.1484 21.996 15.8191 21.7622Z" fill="url(#paint7_linear)"/>
<path d="M14.9723 26.4968L12.4017 28.3217C12.0724 28.5555 11.995 29.0121 12.2288 29.3415C12.3714 29.5423 12.5969 29.6495 12.8258 29.6495C12.9722 29.6495 13.12 29.6056 13.2484 29.5144L15.819 27.6895C16.1483 27.4557 16.2258 26.9992 15.992 26.6698C15.7583 26.3406 15.3016 26.263 14.9723 26.4968Z" fill="url(#paint8_linear)"/>
</g>
<defs>
<linearGradient id="paint0_linear" x1="32.8385" y1="28.5401" x2="9.07797" y2="23.7439" gradientUnits="userSpaceOnUse">
<stop stop-color="#EC7A8F"/>
<stop offset="1" stop-color="#FCAF8C"/>
</linearGradient>
<linearGradient id="paint1_linear" x1="13.6819" y1="8.28472" x2="0.185303" y2="3.63524" gradientUnits="userSpaceOnUse">
<stop stop-color="#EC7A8F"/>
<stop offset="1" stop-color="#FCAF8C"/>
</linearGradient>
<linearGradient id="paint2_linear" x1="48.4355" y1="8.28473" x2="34.9391" y2="3.63546" gradientUnits="userSpaceOnUse">
<stop stop-color="#EC7A8F"/>
<stop offset="1" stop-color="#FCAF8C"/>
</linearGradient>
<linearGradient id="paint3_linear" x1="39.3258" y1="24.7258" x2="37.1883" y2="22.0891" gradientUnits="userSpaceOnUse">
<stop stop-color="#EC7A8F"/>
<stop offset="1" stop-color="#FCAF8C"/>
</linearGradient>
<linearGradient id="paint4_linear" x1="37.4905" y1="21.4457" x2="34.0632" y2="20.0519" gradientUnits="userSpaceOnUse">
<stop stop-color="#EC7A8F"/>
<stop offset="1" stop-color="#FCAF8C"/>
</linearGradient>
<linearGradient id="paint5_linear" x1="37.4905" y1="28.0053" x2="34.0632" y2="26.6115" gradientUnits="userSpaceOnUse">
<stop stop-color="#EC7A8F"/>
<stop offset="1" stop-color="#FCAF8C"/>
</linearGradient>
<linearGradient id="paint6_linear" x1="15.0015" y1="24.7258" x2="12.864" y2="22.0891" gradientUnits="userSpaceOnUse">
<stop stop-color="#EC7A8F"/>
<stop offset="1" stop-color="#FCAF8C"/>
</linearGradient>
<linearGradient id="paint7_linear" x1="15.7131" y1="21.4457" x2="12.2859" y2="20.052" gradientUnits="userSpaceOnUse">
<stop stop-color="#EC7A8F"/>
<stop offset="1" stop-color="#FCAF8C"/>
</linearGradient>
<linearGradient id="paint8_linear" x1="15.7131" y1="28.0053" x2="12.2859" y2="26.6115" gradientUnits="userSpaceOnUse">
<stop stop-color="#EC7A8F"/>
<stop offset="1" stop-color="#FCAF8C"/>
</linearGradient>
<clipPath id="clip0">
<rect width="50" height="50" fill="white"/>
</clipPath>
</defs>
</svg>
