<svg width="50" height="50" viewBox="0 0 50 50" fill="none" xmlns="http://www.w3.org/2000/svg">
<g clip-path="url(#clip0)">
<path d="M35.4945 0H14.5029C12.4795 0 10.832 1.6475 10.832 3.67083V46.3283C10.832 48.3525 12.4795 50 14.5029 50H35.4937C37.5179 50 39.1654 48.3525 39.1654 46.3292V3.67083C39.1654 1.6475 37.5179 0 35.4945 0ZM12.4987 6.66667H37.4987V38.3333H12.4987V6.66667ZM14.5029 1.66667H35.4937C36.5995 1.66667 37.4987 2.56583 37.4987 3.67083V5H12.4987V3.67083C12.4987 2.56583 13.3979 1.66667 14.5029 1.66667ZM35.4945 48.3333H14.5029C13.3979 48.3333 12.4987 47.4342 12.4987 46.3292V40H37.4987V46.3292C37.4987 47.4342 36.5995 48.3333 35.4945 48.3333Z" fill="url(#paint0_linear)"/>
<path d="M24.9974 40.8335C23.1591 40.8335 21.6641 42.3285 21.6641 44.1668C21.6641 46.0052 23.1591 47.5002 24.9974 47.5002C26.8357 47.5002 28.3307 46.0052 28.3307 44.1668C28.3307 42.3285 26.8357 40.8335 24.9974 40.8335ZM24.9974 45.8335C24.0782 45.8335 23.3307 45.086 23.3307 44.1668C23.3307 43.2477 24.0782 42.5002 24.9974 42.5002C25.9166 42.5002 26.6641 43.2477 26.6641 44.1668C26.6641 45.086 25.9166 45.8335 24.9974 45.8335Z" fill="url(#paint1_linear)"/>
<path d="M21.6654 4.16667H24.9987C25.4595 4.16667 25.832 3.79417 25.832 3.33333C25.832 2.8725 25.4595 2.5 24.9987 2.5H21.6654C21.2045 2.5 20.832 2.8725 20.832 3.33333C20.832 3.79417 21.2045 4.16667 21.6654 4.16667Z" fill="url(#paint2_linear)"/>
<path d="M27.4974 4.16667H28.3307C28.7916 4.16667 29.1641 3.79417 29.1641 3.33333C29.1641 2.8725 28.7916 2.5 28.3307 2.5H27.4974C27.0366 2.5 26.6641 2.8725 26.6641 3.33333C26.6641 3.79417 27.0366 4.16667 27.4974 4.16667Z" fill="url(#paint3_linear)"/>
<path d="M47.1766 3.80785C46.8508 3.48202 46.3241 3.48202 45.9983 3.80785C45.6724 4.13368 45.6724 4.66035 45.9983 4.98618C49.1116 8.09952 49.1116 13.1654 45.9983 16.2795C45.6724 16.6054 45.6724 17.132 45.9983 17.4579C46.1608 17.6204 46.3741 17.702 46.5874 17.702C46.8008 17.702 47.0141 17.6204 47.1766 17.4579C50.9399 13.6954 50.9399 7.57119 47.1766 3.80785Z" fill="url(#paint4_linear)"/>
<path d="M43.6649 5.70385C43.3391 5.37801 42.8124 5.37801 42.4866 5.70385C42.1607 6.02968 42.1607 6.55635 42.4866 6.88218C43.5174 7.91301 44.0849 9.28635 44.0849 10.748C44.0849 12.2097 43.5174 13.5822 42.4866 14.613C42.1607 14.9388 42.1607 15.4655 42.4866 15.7913C42.6491 15.9538 42.8624 16.0355 43.0757 16.0355C43.2891 16.0355 43.5024 15.9538 43.6649 15.7913C45.0107 14.4463 45.7516 12.6547 45.7516 10.748C45.7516 8.84135 45.0116 7.04885 43.6649 5.70385Z" fill="url(#paint5_linear)"/>
<path d="M4.00083 4.98618C4.32667 4.66035 4.32667 4.13368 4.00083 3.80785C3.675 3.48202 3.14833 3.48202 2.8225 3.80785C-0.940833 7.57119 -0.940833 13.6945 2.8225 17.4579C2.985 17.6204 3.19833 17.702 3.41167 17.702C3.625 17.702 3.83833 17.6204 4.00083 17.4579C4.32667 17.132 4.32667 16.6054 4.00083 16.2795C0.886666 13.1662 0.886666 8.10035 4.00083 4.98618Z" fill="url(#paint6_linear)"/>
<path d="M7.51109 5.47436C7.18526 5.14852 6.65859 5.14852 6.33276 5.47436C4.98693 6.81936 4.24609 8.61102 4.24609 10.5177C4.24609 12.4244 4.98693 14.216 6.33276 15.5619C6.49526 15.7244 6.70859 15.806 6.92193 15.806C7.13526 15.806 7.34859 15.7244 7.51109 15.5619C7.83693 15.236 7.83693 14.7094 7.51109 14.3835C6.48026 13.3527 5.91276 11.9794 5.91276 10.5177C5.91276 9.05602 6.47943 7.68352 7.51109 6.65269C7.83609 6.32769 7.83609 5.80019 7.51109 5.47436Z" fill="url(#paint7_linear)"/>
</g>
<defs>
<linearGradient id="paint0_linear" x1="36.2575" y1="24.9944" x2="9.15618" y2="19.9035" gradientUnits="userSpaceOnUse">
<stop stop-color="#EC7A8F"/>
<stop offset="1" stop-color="#FCAF8C"/>
</linearGradient>
<linearGradient id="paint1_linear" x1="27.6465" y1="44.1661" x2="21.6984" y2="42.1943" gradientUnits="userSpaceOnUse">
<stop stop-color="#EC7A8F"/>
<stop offset="1" stop-color="#FCAF8C"/>
</linearGradient>
<linearGradient id="paint2_linear" x1="25.3189" y1="3.33315" x2="22.8295" y2="0.857515" gradientUnits="userSpaceOnUse">
<stop stop-color="#EC7A8F"/>
<stop offset="1" stop-color="#FCAF8C"/>
</linearGradient>
<linearGradient id="paint3_linear" x1="28.9075" y1="3.33315" x2="26.9226" y2="2.34617" gradientUnits="userSpaceOnUse">
<stop stop-color="#EC7A8F"/>
<stop offset="1" stop-color="#FCAF8C"/>
</linearGradient>
<linearGradient id="paint4_linear" x1="49.5634" y1="10.6312" x2="45.4008" y2="10.2168" gradientUnits="userSpaceOnUse">
<stop stop-color="#EC7A8F"/>
<stop offset="1" stop-color="#FCAF8C"/>
</linearGradient>
<linearGradient id="paint5_linear" x1="45.3914" y1="10.7463" x2="41.9577" y2="10.3686" gradientUnits="userSpaceOnUse">
<stop stop-color="#EC7A8F"/>
<stop offset="1" stop-color="#FCAF8C"/>
</linearGradient>
<linearGradient id="paint6_linear" x1="3.80952" y1="10.6312" x2="-0.353138" y2="10.2168" gradientUnits="userSpaceOnUse">
<stop stop-color="#EC7A8F"/>
<stop offset="1" stop-color="#FCAF8C"/>
</linearGradient>
<linearGradient id="paint7_linear" x1="7.3953" y1="10.5168" x2="3.96162" y2="10.1391" gradientUnits="userSpaceOnUse">
<stop stop-color="#EC7A8F"/>
<stop offset="1" stop-color="#FCAF8C"/>
</linearGradient>
<clipPath id="clip0">
<rect width="50" height="50" fill="white"/>
</clipPath>
</defs>
</svg>
