<svg width="182" height="94" viewBox="0 0 182 94" fill="none" xmlns="http://www.w3.org/2000/svg">
<line x1="151" y1="46.5" x2="181" y2="46.5" stroke="url(#paint0_linear)"/>
<line y1="-0.5" x2="30" y2="-0.5" transform="matrix(-1 0 0 1 31 47)" stroke="url(#paint1_linear)"/>
<line x1="181.782" y1="93.4501" x2="150.782" y2="78.4501" stroke="url(#paint2_linear)"/>
<line y1="-0.5" x2="34.4384" y2="-0.5" transform="matrix(0.900159 -0.435561 -0.435561 -0.900159 0 93)" stroke="url(#paint3_linear)"/>
<line y1="-0.5" x2="34.4384" y2="-0.5" transform="matrix(-0.900159 0.435561 0.435561 0.900159 182 1)" stroke="url(#paint4_linear)"/>
<line x1="0.21778" y1="0.54992" x2="31.2178" y2="15.5499" stroke="url(#paint5_linear)"/>
<defs>
<linearGradient id="paint0_linear" x1="177.921" y1="47.4999" x2="177.624" y2="44.5425" gradientUnits="userSpaceOnUse">
<stop stop-color="#EC7A8F"/>
<stop offset="1" stop-color="#FCAF8C"/>
</linearGradient>
<linearGradient id="paint1_linear" x1="26.9211" y1="0.499888" x2="26.6237" y2="-2.4575" gradientUnits="userSpaceOnUse">
<stop stop-color="#EC7A8F"/>
<stop offset="1" stop-color="#FCAF8C"/>
</linearGradient>
<linearGradient id="paint2_linear" x1="154.399" y1="79.0895" x2="153.342" y2="81.8712" gradientUnits="userSpaceOnUse">
<stop stop-color="#EC7A8F"/>
<stop offset="1" stop-color="#FCAF8C"/>
</linearGradient>
<linearGradient id="paint3_linear" x1="30.9039" y1="0.499888" x2="30.6442" y2="-2.46466" gradientUnits="userSpaceOnUse">
<stop stop-color="#EC7A8F"/>
<stop offset="1" stop-color="#FCAF8C"/>
</linearGradient>
<linearGradient id="paint4_linear" x1="30.9039" y1="0.499888" x2="30.6442" y2="-2.46466" gradientUnits="userSpaceOnUse">
<stop stop-color="#EC7A8F"/>
<stop offset="1" stop-color="#FCAF8C"/>
</linearGradient>
<linearGradient id="paint5_linear" x1="27.6007" y1="14.9105" x2="28.6582" y2="12.1288" gradientUnits="userSpaceOnUse">
<stop stop-color="#EC7A8F"/>
<stop offset="1" stop-color="#FCAF8C"/>
</linearGradient>
</defs>
</svg>
