<svg width="63" height="63" viewBox="0 0 63 63" fill="none" xmlns="http://www.w3.org/2000/svg">
<g clip-path="url(#clip0)">
<path d="M60.8442 6.83691H46.0591C45.5484 6.83691 45.1344 7.25084 45.1344 7.76161C45.1344 8.27238 45.5484 8.68631 46.0591 8.68631H60.8442C61.0143 8.68631 61.1524 8.82449 61.1524 8.99454V11.7547C61.1524 11.9248 61.0143 12.063 60.8442 12.063H21.2606C20.7499 12.063 20.3359 12.4769 20.3359 12.9877C20.3359 13.4984 20.7499 13.9124 21.2606 13.9124H58.0956V47.5137C58.0956 48.0237 57.6808 48.4384 57.1709 48.4384H46.548C46.0372 48.4384 45.6233 48.8524 45.6233 49.3631C45.6233 49.8739 46.0372 50.2878 46.548 50.2878H57.1709C58.7005 50.2878 59.9448 49.0435 59.9448 47.5139V13.9122H60.8441C62.0337 13.9122 63.0016 12.9443 63.0016 11.7547V8.99442C63.0017 7.8048 62.0338 6.83691 60.8442 6.83691Z" fill="url(#paint0_linear)"/>
<path d="M42.8478 48.4384H5.83082C5.32092 48.4384 4.90613 48.0237 4.90613 47.5137V13.9124H17.5603C18.071 13.9124 18.485 13.4984 18.485 12.9877C18.485 12.4769 18.071 12.063 17.5603 12.063H2.1575C1.98745 12.063 1.84927 11.9248 1.84927 11.7547V8.99454C1.84927 8.82449 1.98745 8.68631 2.1575 8.68631H42.3589C42.8697 8.68631 43.2836 8.27238 43.2836 7.76161C43.2836 7.25084 42.8697 6.83691 42.3589 6.83691H2.1575C0.967887 6.83704 0 7.80492 0 8.99454V11.7547C0 12.9443 0.967887 13.9122 2.1575 13.9122H3.05673V47.5136C3.05673 49.0432 4.30123 50.2876 5.8307 50.2876H30.5753V54.6833C28.9271 55.0974 27.7029 56.5912 27.7029 58.3661C27.7029 60.4599 29.4062 62.1632 31.5 62.1632C33.5938 62.1632 35.2971 60.4599 35.2971 58.3661C35.2971 56.5913 34.0729 55.0974 32.4247 54.6833V50.2876H42.8478C43.3585 50.2876 43.7724 49.8737 43.7724 49.3629C43.7724 48.8524 43.3585 48.4384 42.8478 48.4384ZM33.4478 58.3662C33.4478 59.4403 32.5741 60.3141 31.5 60.3141C30.4259 60.3141 29.5522 59.4403 29.5522 58.3662C29.5522 57.2922 30.4259 56.4184 31.5 56.4184C32.5741 56.4184 33.4478 57.2922 33.4478 58.3662Z" fill="url(#paint1_linear)"/>
<path d="M49.1376 37.3659L52.5468 39.3176C52.6918 39.4005 52.8497 39.4399 53.0054 39.4399C53.3262 39.4399 53.638 39.2728 53.8087 38.9745C54.0624 38.5312 53.9088 37.9663 53.4656 37.7127L50.0602 35.7632V31.1475L53.4655 29.1982C53.9087 28.9445 54.0623 28.3796 53.8087 27.9365C53.555 27.4933 52.9899 27.3397 52.547 27.5933L49.1389 29.5441L45.1329 27.2313V22.077C45.1329 21.7466 44.9567 21.4414 44.6706 21.2762L39.7433 18.4315C39.4572 18.2663 39.1047 18.2663 38.8186 18.4315L34.3536 21.0093L29.8886 18.4315C29.6025 18.2663 29.25 18.2663 28.9639 18.4315L24.0365 21.2762C23.7504 21.4413 23.5742 21.7466 23.5742 22.077V27.7667C23.5742 28.097 23.7505 28.4022 24.0365 28.5675L28.9639 31.4122C29.25 31.5773 29.6025 31.5773 29.8886 31.4122L34.3536 28.8343L38.3562 31.1453V36.2993C38.3562 36.6297 38.5324 36.9349 38.8185 37.1001L43.2835 39.6781V43.1187C43.2835 43.6295 43.6974 44.0434 44.2082 44.0434C44.719 44.0434 45.1329 43.6295 45.1329 43.1187V39.6781L49.1376 37.3659ZM39.281 20.2999L43.2836 22.6109V27.2313L39.2797 29.543L35.2784 27.2329V22.6109L39.281 20.2999ZM33.429 27.2328L29.4265 29.5437L25.4237 27.2328V22.6108L29.4265 20.2998L33.429 22.6108V27.2328ZM40.2057 31.1437L44.2083 28.8327L48.2109 31.1437V35.7656L44.2083 38.0766L40.2057 35.7656V31.1437Z" fill="url(#paint2_linear)"/>
<path d="M27.5575 22.8391C27.0467 22.8391 26.6328 23.253 26.6328 23.7638V26.3595C26.6328 26.8703 27.0467 27.2842 27.5575 27.2842C28.0683 27.2842 28.4822 26.8703 28.4822 26.3595V23.7638C28.4822 23.253 28.0683 22.8391 27.5575 22.8391Z" fill="url(#paint3_linear)"/>
<path d="M28.8263 36.1956H11.1044C10.5936 36.1956 10.1797 36.6095 10.1797 37.1203C10.1797 37.631 10.5936 38.045 11.1044 38.045H28.8263C29.3371 38.045 29.751 37.631 29.751 37.1203C29.751 36.6095 29.3371 36.1956 28.8263 36.1956Z" fill="url(#paint4_linear)"/>
<path d="M19.4105 20.1604H11.1044C10.5936 20.1604 10.1797 20.5743 10.1797 21.0851C10.1797 21.5959 10.5936 22.0098 11.1044 22.0098H19.4105C19.9213 22.0098 20.3352 21.5959 20.3352 21.0851C20.3351 20.5743 19.9212 20.1604 19.4105 20.1604Z" fill="url(#paint5_linear)"/>
<path d="M11.1044 27.3548H19.4105C19.9213 27.3548 20.3352 26.9408 20.3352 26.4301C20.3352 25.9193 19.9213 25.5054 19.4105 25.5054H11.1044C10.5936 25.5054 10.1797 25.9193 10.1797 26.4301C10.1797 26.9408 10.5936 27.3548 11.1044 27.3548Z" fill="url(#paint6_linear)"/>
<path d="M11.1044 32.6997H19.4105C19.9213 32.6997 20.3352 32.2858 20.3352 31.775C20.3352 31.2643 19.9213 30.8503 19.4105 30.8503H11.1044C10.5936 30.8503 10.1797 31.2643 10.1797 31.775C10.1797 32.2858 10.5936 32.6997 11.1044 32.6997Z" fill="url(#paint7_linear)"/>
<path d="M28.8263 41.5408H11.1044C10.5936 41.5408 10.1797 41.9547 10.1797 42.4655C10.1797 42.9762 10.5936 43.3902 11.1044 43.3902H28.8263C29.3371 43.3902 29.751 42.9762 29.751 42.4655C29.751 41.9547 29.3371 41.5408 28.8263 41.5408Z" fill="url(#paint8_linear)"/>
</g>
<defs>
<linearGradient id="paint0_linear" x1="58.6227" y1="28.5575" x2="20.42" y2="16.1224" gradientUnits="userSpaceOnUse">
<stop stop-color="#EC7A8F"/>
<stop offset="1" stop-color="#FCAF8C"/>
</linearGradient>
<linearGradient id="paint1_linear" x1="39.28" y1="34.4939" x2="-1.27677" y2="23.8571" gradientUnits="userSpaceOnUse">
<stop stop-color="#EC7A8F"/>
<stop offset="1" stop-color="#FCAF8C"/>
</linearGradient>
<linearGradient id="paint2_linear" x1="50.8155" y1="31.1726" x2="24.7407" y2="20.977" gradientUnits="userSpaceOnUse">
<stop stop-color="#EC7A8F"/>
<stop offset="1" stop-color="#FCAF8C"/>
</linearGradient>
<linearGradient id="paint3_linear" x1="28.2924" y1="25.0611" x2="26.4952" y2="24.8133" gradientUnits="userSpaceOnUse">
<stop stop-color="#EC7A8F"/>
<stop offset="1" stop-color="#FCAF8C"/>
</linearGradient>
<linearGradient id="paint4_linear" x1="27.7424" y1="37.12" x2="26.2859" y2="32.0106" gradientUnits="userSpaceOnUse">
<stop stop-color="#EC7A8F"/>
<stop offset="1" stop-color="#FCAF8C"/>
</linearGradient>
<linearGradient id="paint5_linear" x1="19.293" y1="21.0849" x2="16.9616" y2="16.841" gradientUnits="userSpaceOnUse">
<stop stop-color="#EC7A8F"/>
<stop offset="1" stop-color="#FCAF8C"/>
</linearGradient>
<linearGradient id="paint6_linear" x1="19.293" y1="26.4299" x2="16.9616" y2="22.1859" gradientUnits="userSpaceOnUse">
<stop stop-color="#EC7A8F"/>
<stop offset="1" stop-color="#FCAF8C"/>
</linearGradient>
<linearGradient id="paint7_linear" x1="19.293" y1="31.7748" x2="16.9616" y2="27.5309" gradientUnits="userSpaceOnUse">
<stop stop-color="#EC7A8F"/>
<stop offset="1" stop-color="#FCAF8C"/>
</linearGradient>
<linearGradient id="paint8_linear" x1="27.7424" y1="42.4653" x2="26.2859" y2="37.3558" gradientUnits="userSpaceOnUse">
<stop stop-color="#EC7A8F"/>
<stop offset="1" stop-color="#FCAF8C"/>
</linearGradient>
<clipPath id="clip0">
<rect width="63" height="63" fill="white"/>
</clipPath>
</defs>
</svg>
