<svg width="66" height="66" viewBox="0 0 66 66" fill="none" xmlns="http://www.w3.org/2000/svg">
<g clip-path="url(#clip0)">
<path d="M11.5202 51.1537C10.6032 51.1537 9.72166 51.3825 8.93959 51.8123C4.81985 46.5312 2.55859 39.9708 2.55859 33.25C2.55859 16.6021 16.1021 3.05859 32.75 3.05859C34.7739 3.05859 36.7968 3.25998 38.7627 3.65726C39.4543 3.79719 40.1299 3.34943 40.2699 2.65681C40.4098 1.9642 39.962 1.28957 39.2694 1.14914C37.1371 0.71838 34.9438 0.5 32.75 0.5C24.0023 0.5 15.7778 3.90663 9.59223 10.0922C3.40663 16.2778 0 24.5023 0 33.25C0 40.6085 2.49863 47.7895 7.04763 53.5463C6.46195 54.4214 6.14712 55.4498 6.14712 56.5267C6.14712 57.9619 6.70631 59.3112 7.72126 60.3256C8.7357 61.3406 10.085 61.8998 11.5202 61.8998C12.9554 61.8998 14.3046 61.3406 15.3196 60.3256C16.3345 59.3112 16.8932 57.9614 16.8932 56.5262C16.8932 55.0915 16.3345 53.7417 15.3196 52.7273C14.3046 51.7124 12.9554 51.1537 11.5202 51.1537ZM13.5101 58.5166C12.9789 59.0483 12.2718 59.3412 11.5202 59.3412C10.7686 59.3412 10.062 59.0483 9.53026 58.5166C8.99855 57.9849 8.70572 57.2783 8.70572 56.5267C8.70572 55.7746 8.99855 55.068 9.53026 54.5363C10.0615 54.0046 10.7686 53.7123 11.5202 53.7123C12.2718 53.7123 12.9784 54.0051 13.5101 54.5363C14.0418 55.068 14.3346 55.7746 14.3346 56.5267C14.3346 57.2783 14.0418 57.9849 13.5101 58.5166Z" fill="url(#paint0_linear)"/>
<path d="M58.4529 12.9521C59.8437 10.8658 59.6203 8.01334 57.7808 6.17385C56.7659 5.15941 55.4166 4.60022 53.9814 4.60022C52.5462 4.60022 51.1969 5.15941 50.182 6.17385C49.167 7.1888 48.6084 8.53806 48.6084 9.97327C48.6084 11.4085 49.167 12.7577 50.182 13.7727C51.1969 14.7876 52.5462 15.3463 53.9814 15.3463C54.8984 15.3463 55.7799 15.1174 56.562 14.6877C60.6817 19.9693 62.943 26.5292 62.943 33.25C62.943 49.8978 49.3994 63.4414 32.7516 63.4414C30.7477 63.4414 28.7438 63.244 26.7963 62.8542C26.1037 62.7158 25.4296 63.165 25.2907 63.8577C25.1522 64.5508 25.6015 65.2244 26.2941 65.3633C28.4065 65.7856 30.5793 66 32.7516 66C41.4993 66 49.7237 62.5933 55.9093 56.4077C62.0949 50.2221 65.5016 41.9977 65.5016 33.25C65.5016 25.891 63.0024 18.7095 58.4529 12.9521ZM51.9915 11.9637C51.4598 11.432 51.167 10.7254 51.167 9.97327C51.167 9.22168 51.4598 8.51507 51.9915 7.98336C52.5227 7.45165 53.2298 7.15881 53.9814 7.15881C54.733 7.15881 55.4401 7.45165 55.9718 7.98336C57.0687 9.08076 57.0687 10.8663 55.9718 11.9637C55.4401 12.4949 54.733 12.7877 53.9814 12.7877C53.2293 12.7877 52.5227 12.4949 51.9915 11.9637Z" fill="url(#paint1_linear)"/>
<path d="M27.467 55.2539C27.467 55.9605 28.0402 56.5332 28.7463 56.5332H36.7454C37.4521 56.5332 38.0247 55.9605 38.0247 55.2539V52.7738C39.7068 52.321 41.3149 51.6544 42.8261 50.7839L44.5771 52.5349C44.817 52.7748 45.1423 52.9097 45.4821 52.9097C45.821 52.9097 46.1468 52.7748 46.3866 52.5344L52.0405 46.8765C52.5398 46.3768 52.5398 45.5667 52.0405 45.0675L50.2915 43.3185C51.162 41.8073 51.8287 40.1992 52.2814 38.5171H54.752C55.4587 38.5171 56.0313 37.9444 56.0313 37.2378V29.2387C56.0313 28.5321 55.4587 27.9594 54.752 27.9594H52.2809C51.8282 26.2778 51.162 24.6697 50.2915 23.1585L52.031 21.419C52.2709 21.1791 52.4058 20.8533 52.4058 20.514C52.4053 20.1747 52.2704 19.8489 52.0305 19.609L46.3722 13.9551C45.8729 13.4559 45.0629 13.4559 44.5631 13.9556L42.8261 15.6931C41.3149 14.8226 39.7068 14.156 38.0247 13.7032V11.2461C38.0247 10.5395 37.4521 9.9668 36.7454 9.9668H28.7463C28.0402 9.9668 27.467 10.5395 27.467 11.2461V13.7037C25.7855 14.156 24.1774 14.8226 22.6662 15.6931L20.9286 13.9556C20.4294 13.4564 19.6194 13.4559 19.1196 13.9551L13.4617 19.6095C13.2214 19.8494 13.0864 20.1747 13.0864 20.514C13.0864 20.8533 13.2214 21.1791 13.4612 21.419L15.2008 23.1585C14.3303 24.6697 13.6636 26.2773 13.2109 27.9594H10.7447C10.0381 27.9594 9.46544 28.5321 9.46544 29.2382L9.46094 37.2373C9.46044 37.5766 9.59536 37.9024 9.83523 38.1423C10.0751 38.3822 10.4004 38.5171 10.7402 38.5171H13.2109C13.6636 40.1992 14.3303 41.8073 15.2008 43.3185L13.4517 45.0675C12.9525 45.5667 12.952 46.3768 13.4517 46.8765L19.1056 52.5344C19.3455 52.7743 19.6708 52.9097 20.0101 52.9097H20.0106C20.35 52.9097 20.6753 52.7748 20.9151 52.5349L22.6657 50.7839C24.1774 51.6544 25.7855 52.321 27.467 52.7738V55.2539ZM23.1674 48.0933C22.6612 47.766 21.995 47.837 21.5683 48.2632L20.0106 49.8209L16.1653 45.9725L17.7214 44.4159C18.1477 43.9896 18.2186 43.3235 17.8913 42.8172C16.7314 41.0222 15.9159 39.0548 15.4681 36.969C15.3412 36.3798 14.8205 35.9585 14.2173 35.9585H12.02L12.023 30.518H14.2173C14.8205 30.518 15.3412 30.0972 15.4681 29.5076C15.9159 27.4222 16.7314 25.4548 17.8913 23.6598C18.2186 23.1535 18.1477 22.4874 17.7214 22.0611L16.1752 20.5145L20.0236 16.6691L21.5683 18.2143C21.995 18.6405 22.6607 18.711 23.1674 18.3842C24.9619 17.2243 26.9293 16.4088 29.0152 15.961C29.6044 15.8341 30.0256 15.3129 30.0256 14.7102V12.5254H35.4661V14.7097C35.4661 15.3129 35.8869 15.8341 36.4766 15.9605C38.5619 16.4088 40.5299 17.2238 42.3244 18.3837C42.8306 18.711 43.4967 18.6405 43.923 18.2138L45.4681 16.6691L49.3165 20.5145L47.7704 22.0606C47.3436 22.4874 47.2732 23.1535 47.6005 23.6598C48.7603 25.4548 49.5754 27.4222 50.0236 29.5076C50.1501 30.0972 50.6713 30.518 51.2745 30.518H53.4727V35.9585H51.2745C50.6713 35.9585 50.1506 36.3798 50.0236 36.969C49.5759 39.0543 48.7603 41.0222 47.6005 42.8167C47.2732 43.3235 47.3441 43.9896 47.7704 44.4159L49.3265 45.972L45.4811 49.8204L43.9235 48.2632C43.4967 47.8365 42.8306 47.766 42.3244 48.0933C40.5294 49.2532 38.5619 50.0683 36.4766 50.5165C35.8869 50.6434 35.4661 51.1642 35.4661 51.7673V53.9746H30.0256V51.7673C30.0256 51.1647 29.6044 50.6434 29.0152 50.5165C26.9298 50.0688 24.9624 49.2532 23.1674 48.0933Z" fill="url(#paint2_linear)"/>
<path d="M43.325 33.25C43.325 27.4212 38.5831 22.6793 32.7543 22.6793C26.9255 22.6793 22.1836 27.4212 22.1836 33.25C22.1836 39.0788 26.9255 43.8207 32.7543 43.8207C38.5831 43.8207 43.325 39.0788 43.325 33.25ZM24.7422 33.25C24.7422 28.8319 28.3362 25.2379 32.7543 25.2379C37.1724 25.2379 40.7664 28.8324 40.7664 33.25C40.7664 37.6676 37.1724 41.2621 32.7543 41.2621C28.3362 41.2621 24.7422 37.6681 24.7422 33.25Z" fill="url(#paint3_linear)"/>
<path d="M44.5332 5.33835C44.87 5.33835 45.1998 5.20143 45.4377 4.96356C45.6756 4.72419 45.8125 4.39437 45.8125 4.05756C45.8125 3.72274 45.6761 3.39242 45.4377 3.15305C45.1998 2.91518 44.87 2.77826 44.5332 2.77826C44.1954 2.77826 43.8671 2.91518 43.6292 3.15305C43.3908 3.39242 43.2539 3.72124 43.2539 4.05756C43.2539 4.39537 43.3908 4.72419 43.6292 4.96356C43.8671 5.20143 44.1954 5.33835 44.5332 5.33835Z" fill="url(#paint4_linear)"/>
<path d="M21.0254 61.1846C20.6891 61.1846 20.3588 61.3216 20.1209 61.5594C19.883 61.7973 19.7461 62.1276 19.7461 62.4639C19.7461 62.8017 19.883 63.1306 20.1209 63.3684C20.3588 63.6063 20.6891 63.7432 21.0254 63.7432C21.3617 63.7432 21.692 63.6063 21.9299 63.3684C22.1678 63.1306 22.3047 62.8002 22.3047 62.4639C22.3047 62.1276 22.1678 61.7973 21.9299 61.5594C21.692 61.3216 21.3617 61.1846 21.0254 61.1846Z" fill="url(#paint5_linear)"/>
</g>
<defs>
<linearGradient id="paint0_linear" x1="36.1599" y1="31.193" x2="-1.94018" y2="22.9042" gradientUnits="userSpaceOnUse">
<stop stop-color="#EC7A8F"/>
<stop offset="1" stop-color="#FCAF8C"/>
</linearGradient>
<linearGradient id="paint1_linear" x1="61.3721" y1="35.2932" x2="23.3232" y2="27.0278" gradientUnits="userSpaceOnUse">
<stop stop-color="#EC7A8F"/>
<stop offset="1" stop-color="#FCAF8C"/>
</linearGradient>
<linearGradient id="paint2_linear" x1="51.2517" y1="33.2448" x2="9.70126" y2="19.4699" gradientUnits="userSpaceOnUse">
<stop stop-color="#EC7A8F"/>
<stop offset="1" stop-color="#FCAF8C"/>
</linearGradient>
<linearGradient id="paint3_linear" x1="41.1552" y1="33.2476" x2="22.2924" y2="26.9947" gradientUnits="userSpaceOnUse">
<stop stop-color="#EC7A8F"/>
<stop offset="1" stop-color="#FCAF8C"/>
</linearGradient>
<linearGradient id="paint4_linear" x1="45.5499" y1="4.05802" x2="43.2668" y2="3.30163" gradientUnits="userSpaceOnUse">
<stop stop-color="#EC7A8F"/>
<stop offset="1" stop-color="#FCAF8C"/>
</linearGradient>
<linearGradient id="paint5_linear" x1="22.0421" y1="62.4636" x2="19.7593" y2="61.7069" gradientUnits="userSpaceOnUse">
<stop stop-color="#EC7A8F"/>
<stop offset="1" stop-color="#FCAF8C"/>
</linearGradient>
<clipPath id="clip0">
<rect y="0.5" width="65.5" height="65.5" fill="white"/>
</clipPath>
</defs>
</svg>
