<svg width="55" height="55" viewBox="0 0 55 55" fill="none" xmlns="http://www.w3.org/2000/svg">
<g clip-path="url(#clip0)">
<path d="M27.498 33.7097C25.0524 33.7097 23.0625 35.6996 23.0625 38.1452C23.0625 40.5908 25.0524 42.5807 27.498 42.5807C29.9436 42.5807 31.9335 40.5908 31.9335 38.1452C31.9335 35.6996 29.9436 33.7097 27.498 33.7097ZM27.498 40.8065C26.0309 40.8065 24.8367 39.6123 24.8367 38.1452C24.8367 36.6781 26.0309 35.4839 27.498 35.4839C28.9651 35.4839 30.1593 36.6781 30.1593 38.1452C30.1593 39.6123 28.9651 40.8065 27.498 40.8065Z" fill="url(#paint0_linear)"/>
<path d="M26.6133 3.54834H33.7101V5.32253H26.6133V3.54834Z" fill="url(#paint1_linear)"/>
<path d="M26.6133 7.0968H33.7101V8.871H26.6133V7.0968Z" fill="url(#paint2_linear)"/>
<path d="M21.293 10.6453H33.7123V12.4195H21.293V10.6453Z" fill="url(#paint3_linear)"/>
<path d="M21.293 14.1935H33.7123V15.9677H21.293V14.1935Z" fill="url(#paint4_linear)"/>
<path d="M21.293 17.7419H33.7123V19.5161H21.293V17.7419Z" fill="url(#paint5_linear)"/>
<path d="M55 28.3871V21.2903H42.5806V28.3871H47.9032V37.2581H37.2581V35.7312L35.0802 35.0048L36.1067 32.9521L32.6931 29.5384L30.6395 30.5659L29.914 28.3871H28.3871V23.0645H37.2581V12.4194H47.9032V17.3746L45.8691 15.3405L44.6147 16.5949L48.7903 20.7705L52.9659 16.5949L51.7115 15.3405L49.6774 17.3746V10.6452H37.2581V0H23.5843L17.7419 5.84236V10.6452H5.32258V17.3746L3.2885 15.3405L2.03409 16.5949L6.20968 20.7705L10.3853 16.5949L9.13086 15.3405L7.09677 17.3746V12.4194H17.7419V23.0645H26.6129V28.3871H25.086L24.3605 30.5659L22.3069 29.5384L18.8933 32.9521L19.9198 35.0048L17.7419 35.7312V37.2581H7.09677V28.3871H12.4194V21.2903H0V28.3871H5.32258V42.7067C3.79572 43.103 2.66129 44.4809 2.66129 46.129C2.66129 48.086 4.25269 49.6774 6.20968 49.6774C8.16666 49.6774 9.75806 48.086 9.75806 46.129C9.75806 44.4809 8.62364 43.103 7.09677 42.7067V39.0323H12.4194V49.8407C11.3893 50.208 10.6452 51.1839 10.6452 52.3387C10.6452 53.8058 11.8394 55 13.3065 55C14.7735 55 15.9677 53.8058 15.9677 52.3387C15.9677 51.1839 15.2236 50.208 14.1935 49.8407V39.0323H17.7419V40.5591L19.9198 41.2855L18.8933 43.3382L22.3069 46.7519L24.3605 45.7245L25.086 47.9032H29.9131L30.6386 45.7245L32.6922 46.7519L36.1059 43.3382L35.0793 41.2855L37.2581 40.5591V39.0323H40.8064V49.8407C39.7764 50.208 39.0323 51.1839 39.0323 52.3387C39.0323 53.8058 40.2265 55 41.6935 55C43.1606 55 44.3548 53.8058 44.3548 52.3387C44.3548 51.1839 43.6107 50.208 42.5806 49.8407V39.0323H47.9032V42.7067C46.3764 43.103 45.2419 44.4809 45.2419 46.129C45.2419 48.086 46.8333 49.6774 48.7903 49.6774C50.7473 49.6774 52.3387 48.086 52.3387 46.129C52.3387 44.4809 51.2043 43.103 49.6774 42.7067V28.3871H55ZM23.0645 3.0286V5.32258H20.7705L23.0645 3.0286ZM19.5161 7.09677H24.8387V1.77419H35.4839V21.2903H19.5161V7.09677ZM1.77419 23.0645H10.6452V26.6129H1.77419V23.0645ZM7.98387 46.129C7.98387 47.1075 7.18817 47.9032 6.20968 47.9032C5.23119 47.9032 4.43548 47.1075 4.43548 46.129C4.43548 45.1505 5.23119 44.3548 6.20968 44.3548C7.18817 44.3548 7.98387 45.1505 7.98387 46.129ZM13.3065 53.2258C12.817 53.2258 12.4194 52.8273 12.4194 52.3387C12.4194 51.8501 12.817 51.4516 13.3065 51.4516C13.7959 51.4516 14.1935 51.8501 14.1935 52.3387C14.1935 52.8273 13.7959 53.2258 13.3065 53.2258ZM35.4839 39.2796L33.4489 39.9583L33.299 40.3495C33.2544 40.463 33.2103 40.576 33.1613 40.6856L32.9893 41.0698L33.9483 42.9878L32.3435 44.5926L30.4255 43.6336L30.0417 43.8056C29.9326 43.8545 29.8217 43.8987 29.7091 43.9416L29.314 44.0906L28.6344 46.129H26.3647L25.6851 44.0906L25.2901 43.9416C25.1774 43.8987 25.0665 43.8545 24.9574 43.8056L24.5736 43.6336L22.6556 44.5926L21.0508 42.9878L22.0098 41.0698L21.8378 40.6856C21.788 40.5747 21.7447 40.463 21.7001 40.3495L21.5502 39.9583L19.5161 39.2796V37.0099L21.5511 36.3311L21.701 35.94C21.7456 35.8265 21.7897 35.7134 21.8387 35.6034L22.0107 35.2196L21.0517 33.3016L22.6565 31.6968L24.5745 32.6558L24.9583 32.4839C25.0674 32.4349 25.1783 32.3907 25.2909 32.3478L25.686 32.1988L26.3656 30.1613H28.6353L29.3149 32.1997L29.7099 32.3487C29.8226 32.3916 29.9335 32.4358 30.0426 32.4847L30.4264 32.6567L32.3444 31.6977L33.9492 33.3025L32.9902 35.2205L33.1622 35.6047C33.212 35.7156 33.2553 35.8274 33.2999 35.9408L33.4498 36.332L35.4839 37.0107V39.2796ZM41.6935 53.2258C41.2041 53.2258 40.8064 52.8273 40.8064 52.3387C40.8064 51.8501 41.2041 51.4516 41.6935 51.4516C42.183 51.4516 42.5806 51.8501 42.5806 52.3387C42.5806 52.8273 42.183 53.2258 41.6935 53.2258ZM50.5645 46.129C50.5645 47.1075 49.7688 47.9032 48.7903 47.9032C47.8118 47.9032 47.0161 47.1075 47.0161 46.129C47.0161 45.1505 47.8118 44.3548 48.7903 44.3548C49.7688 44.3548 50.5645 45.1505 50.5645 46.129ZM44.3548 23.0645H53.2258V26.6129H44.3548V23.0645Z" fill="url(#paint6_linear)"/>
</g>
<defs>
<linearGradient id="paint0_linear" x1="31.023" y1="38.1442" x2="23.1081" y2="35.5205" gradientUnits="userSpaceOnUse">
<stop stop-color="#EC7A8F"/>
<stop offset="1" stop-color="#FCAF8C"/>
</linearGradient>
<linearGradient id="paint1_linear" x1="32.9817" y1="4.43524" x2="30.4338" y2="1.05675" gradientUnits="userSpaceOnUse">
<stop stop-color="#EC7A8F"/>
<stop offset="1" stop-color="#FCAF8C"/>
</linearGradient>
<linearGradient id="paint2_linear" x1="32.9817" y1="7.9837" x2="30.4338" y2="4.60522" gradientUnits="userSpaceOnUse">
<stop stop-color="#EC7A8F"/>
<stop offset="1" stop-color="#FCAF8C"/>
</linearGradient>
<linearGradient id="paint3_linear" x1="32.4377" y1="11.5322" x2="30.5114" y2="7.06227" gradientUnits="userSpaceOnUse">
<stop stop-color="#EC7A8F"/>
<stop offset="1" stop-color="#FCAF8C"/>
</linearGradient>
<linearGradient id="paint4_linear" x1="32.4377" y1="15.0804" x2="30.5114" y2="10.6105" gradientUnits="userSpaceOnUse">
<stop stop-color="#EC7A8F"/>
<stop offset="1" stop-color="#FCAF8C"/>
</linearGradient>
<linearGradient id="paint5_linear" x1="32.4377" y1="18.6288" x2="30.5114" y2="14.1589" gradientUnits="userSpaceOnUse">
<stop stop-color="#EC7A8F"/>
<stop offset="1" stop-color="#FCAF8C"/>
</linearGradient>
<linearGradient id="paint6_linear" x1="49.3553" y1="27.4938" x2="0.282985" y2="11.2267" gradientUnits="userSpaceOnUse">
<stop stop-color="#EC7A8F"/>
<stop offset="1" stop-color="#FCAF8C"/>
</linearGradient>
<clipPath id="clip0">
<rect width="55" height="55" fill="white"/>
</clipPath>
</defs>
</svg>
