<svg width="52" height="52" viewBox="0 0 52 52" fill="none" xmlns="http://www.w3.org/2000/svg">
<path d="M26 1.625C23.7502 1.625 21.551 2.29213 19.6804 3.54203C17.8098 4.79193 16.3518 6.56847 15.4909 8.64698C14.6299 10.7255 14.4047 13.0126 14.8436 15.2192C15.2825 17.4257 16.3658 19.4525 17.9567 21.0433C19.5475 22.6342 21.5743 23.7175 23.7809 24.1564C25.9874 24.5953 28.2745 24.3701 30.353 23.5091C32.4315 22.6482 34.2081 21.1902 35.458 19.3196C36.7079 17.449 37.375 15.2498 37.375 13C37.3718 9.98415 36.1723 7.09275 34.0398 4.96022C31.9073 2.8277 29.0159 1.62823 26 1.625ZM31.6875 20.9056C30.0334 22.1045 28.0428 22.75 26 22.75C23.9572 22.75 21.9666 22.1045 20.3125 20.9056V20.6944C20.3157 20.2415 20.4431 19.7982 20.6809 19.4128C20.9188 19.0274 21.2579 18.7147 21.6613 18.5088L22.1244 18.2812L22.8231 19.8331C22.8704 19.9406 22.9408 20.0364 23.0293 20.1136C23.1177 20.1908 23.2221 20.2476 23.335 20.28C23.4087 20.3028 23.4854 20.3137 23.5625 20.3125C23.722 20.3129 23.8779 20.2647 24.0094 20.1744L26 18.85L27.9906 20.1744C28.1221 20.2647 28.278 20.3129 28.4375 20.3125C28.5146 20.3137 28.5914 20.3028 28.665 20.28C28.7779 20.2476 28.8823 20.1908 28.9707 20.1136C29.0592 20.0364 29.1296 19.9406 29.1769 19.8331L29.8756 18.2812L30.3388 18.5088C30.7421 18.7147 31.0812 19.0274 31.3191 19.4128C31.5569 19.7982 31.6843 20.2415 31.6875 20.6944V20.9056ZM26.5688 10.2456C26.7722 10.5631 27.0472 10.8284 27.3717 11.0203C27.6963 11.2122 28.0613 11.3254 28.4375 11.3506V11.375C28.4375 12.0215 28.1807 12.6415 27.7236 13.0986C27.2665 13.5557 26.6465 13.8125 26 13.8125C25.3535 13.8125 24.7336 13.5557 24.2764 13.0986C23.8193 12.6415 23.5625 12.0215 23.5625 11.375V11.3425C24.6497 11.2758 25.6941 10.8947 26.5688 10.2456ZM23.5625 9.70937V8.9375C23.5625 8.29103 23.8193 7.67105 24.2764 7.21393C24.7336 6.75681 25.3535 6.5 26 6.5C26.6465 6.5 27.2665 6.75681 27.7236 7.21393C28.1807 7.67105 28.4375 8.29103 28.4375 8.9375V9.72563C28.3226 9.69894 28.2149 9.64725 28.1222 9.57422C28.0295 9.50119 27.9541 9.40863 27.9013 9.30312L27.5356 8.57188C27.4784 8.45713 27.3948 8.35755 27.2917 8.2813C27.1886 8.20504 27.069 8.15427 26.9425 8.13313C26.8151 8.11287 26.6847 8.12291 26.5619 8.16244C26.4391 8.20196 26.3273 8.26986 26.2356 8.36062L26.0406 8.56375C25.3723 9.22124 24.4963 9.62619 23.5625 9.70937ZM28.4213 17.5581L28.0881 18.2894L27.2756 17.745L27.7875 17.2412L28.4213 17.5581ZM26.8125 15.3562V15.9169L26 16.7294L25.1875 15.9169V15.3562C25.7238 15.4646 26.2763 15.4646 26.8125 15.3562ZM24.7244 17.745L23.9119 18.2894L23.5788 17.5581L24.2125 17.2412L24.7244 17.745ZM33.1581 19.5975C33.0032 19.054 32.7378 18.5484 32.3785 18.1122C32.0192 17.676 31.5737 17.3187 31.07 17.0625L28.4375 15.7462V14.6006C28.941 14.2268 29.3501 13.7404 29.6323 13.1804C29.9144 12.6203 30.0618 12.0021 30.0625 11.375V8.9375C30.0625 7.86006 29.6345 6.82675 28.8726 6.06488C28.1108 5.30301 27.0774 4.875 26 4.875C24.9226 4.875 23.8892 5.30301 23.1274 6.06488C22.3655 6.82675 21.9375 7.86006 21.9375 8.9375V11.375C21.9383 12.0021 22.0856 12.6203 22.3677 13.1804C22.6499 13.7404 23.059 14.2268 23.5625 14.6006V15.7462L20.93 17.0625C20.4263 17.3187 19.9808 17.676 19.6215 18.1122C19.2622 18.5484 18.9968 19.054 18.8419 19.5975C17.5546 18.2055 16.701 16.4685 16.3858 14.5989C16.0705 12.7293 16.3071 10.8084 17.0667 9.07127C17.8263 7.33413 19.0759 5.85614 20.6626 4.81824C22.2492 3.78034 24.104 3.22755 26 3.22755C27.896 3.22755 29.7508 3.78034 31.3374 4.81824C32.9241 5.85614 34.1737 7.33413 34.9333 9.07127C35.6929 10.8084 35.9295 12.7293 35.6142 14.5989C35.299 16.4685 34.4454 18.2055 33.1581 19.5975Z" fill="url(#paint0_linear)"/>
<path d="M39.8125 9.75H39V11.375H39.8125C40.028 11.375 40.2347 11.4606 40.387 11.613C40.5394 11.7653 40.625 11.972 40.625 12.1875V47.9375C40.625 48.153 40.5394 48.3597 40.387 48.512C40.2347 48.6644 40.028 48.75 39.8125 48.75H12.1875C11.972 48.75 11.7653 48.6644 11.613 48.512C11.4606 48.3597 11.375 48.153 11.375 47.9375V12.1875C11.375 11.972 11.4606 11.7653 11.613 11.613C11.7653 11.4606 11.972 11.375 12.1875 11.375H13V9.75H12.1875C11.541 9.75 10.921 10.0068 10.4639 10.4639C10.0068 10.921 9.75 11.541 9.75 12.1875V47.9375C9.75 48.584 10.0068 49.204 10.4639 49.6611C10.921 50.1182 11.541 50.375 12.1875 50.375H39.8125C40.459 50.375 41.079 50.1182 41.5361 49.6611C41.9932 49.204 42.25 48.584 42.25 47.9375V12.1875C42.25 11.541 41.9932 10.921 41.5361 10.4639C41.079 10.0068 40.459 9.75 39.8125 9.75Z" fill="url(#paint1_linear)"/>
<path d="M47.9375 13H43.875V14.625H47.9375C48.153 14.625 48.3597 14.7106 48.512 14.863C48.6644 15.0153 48.75 15.222 48.75 15.4375V44.6875C48.75 44.903 48.6644 45.1097 48.512 45.262C48.3597 45.4144 48.153 45.5 47.9375 45.5H43.875V47.125H47.9375C48.584 47.125 49.204 46.8682 49.6611 46.4111C50.1182 45.954 50.375 45.334 50.375 44.6875V15.4375C50.375 14.791 50.1182 14.171 49.6611 13.7139C49.204 13.2568 48.584 13 47.9375 13Z" fill="url(#paint2_linear)"/>
<path d="M1.625 15.4375V44.6875C1.625 45.334 1.88181 45.954 2.33893 46.4111C2.79605 46.8682 3.41603 47.125 4.0625 47.125H8.125V45.5H4.0625C3.84701 45.5 3.64035 45.4144 3.48798 45.262C3.3356 45.1097 3.25 44.903 3.25 44.6875V15.4375C3.25 15.222 3.3356 15.0153 3.48798 14.863C3.64035 14.7106 3.84701 14.625 4.0625 14.625H8.125V13H4.0625C3.41603 13 2.79605 13.2568 2.33893 13.7139C1.88181 14.171 1.625 14.791 1.625 15.4375Z" fill="url(#paint3_linear)"/>
<path d="M4.875 19.5H8.125V21.125H4.875V19.5Z" fill="url(#paint4_linear)"/>
<path d="M4.875 22.75H8.125V24.375H4.875V22.75Z" fill="url(#paint5_linear)"/>
<path d="M4.875 26H8.125V27.625H4.875V26Z" fill="url(#paint6_linear)"/>
<path d="M4.875 29.25H8.125V30.875H4.875V29.25Z" fill="url(#paint7_linear)"/>
<path d="M4.875 32.5H8.125V34.125H4.875V32.5Z" fill="url(#paint8_linear)"/>
<path d="M4.875 35.75H8.125V37.375H4.875V35.75Z" fill="url(#paint9_linear)"/>
<path d="M4.875 39H8.125V40.625H4.875V39Z" fill="url(#paint10_linear)"/>
<path d="M43.875 19.5H47.125V21.125H43.875V19.5Z" fill="url(#paint11_linear)"/>
<path d="M43.875 22.75H47.125V24.375H43.875V22.75Z" fill="url(#paint12_linear)"/>
<path d="M43.875 26H47.125V27.625H43.875V26Z" fill="url(#paint13_linear)"/>
<path d="M43.875 29.25H47.125V30.875H43.875V29.25Z" fill="url(#paint14_linear)"/>
<path d="M43.875 32.5H47.125V34.125H43.875V32.5Z" fill="url(#paint15_linear)"/>
<path d="M43.875 35.75H47.125V37.375H43.875V35.75Z" fill="url(#paint16_linear)"/>
<path d="M43.875 39H47.125V40.625H43.875V39Z" fill="url(#paint17_linear)"/>
<path d="M18.6883 35.75C19.7653 35.7487 20.7979 35.3203 21.5595 34.5587C22.3211 33.7971 22.7495 32.7646 22.7508 31.6875C22.7476 31.0969 22.6142 30.5143 22.36 29.9813L23.3252 29.016L22.1764 27.8671L21.3752 28.6683C20.8844 28.2306 20.2946 27.9189 19.6565 27.7599C19.0184 27.601 18.3513 27.5996 17.7125 27.7558C17.0738 27.9121 16.4826 28.2214 15.99 28.657C15.4974 29.0926 15.1181 29.6415 14.8848 30.2563C14.6516 30.8711 14.5713 31.5334 14.651 32.1862C14.7306 32.8389 14.9679 33.4625 15.3422 34.0031C15.7165 34.5438 16.2167 34.9853 16.7996 35.2896C17.3825 35.594 18.0307 35.752 18.6883 35.75ZM18.6883 29.25C19.2511 29.2524 19.7954 29.4512 20.2272 29.8123L18.1147 31.9248L19.2635 33.0736L21.0827 31.2544C21.1717 31.7473 21.1067 32.2556 20.8966 32.7102C20.6864 33.1648 20.3414 33.5437 19.9083 33.7952C19.4752 34.0468 18.9752 34.1588 18.4762 34.1161C17.9772 34.0734 17.5034 33.878 17.1194 33.5566C16.7354 33.2351 16.4597 32.8031 16.3298 32.3194C16.2 31.8357 16.2223 31.3237 16.3938 30.8531C16.5652 30.3826 16.8774 29.9762 17.288 29.6894C17.6985 29.4025 18.1875 29.2491 18.6883 29.25Z" fill="url(#paint18_linear)"/>
<path d="M30.0625 29.25H36.5625V30.875H30.0625V29.25Z" fill="url(#paint19_linear)"/>
<path d="M26.8125 32.5H36.5625V34.125H26.8125V32.5Z" fill="url(#paint20_linear)"/>
<path d="M18.6883 45.5C19.7653 45.4987 20.7979 45.0703 21.5595 44.3087C22.3211 43.5471 22.7495 42.5146 22.7508 41.4375C22.7476 40.8469 22.6142 40.2643 22.36 39.7313L23.3252 38.766L22.1764 37.6171L21.3752 38.4183C20.8844 37.9806 20.2946 37.6689 19.6565 37.5099C19.0184 37.351 18.3513 37.3496 17.7125 37.5058C17.0738 37.6621 16.4826 37.9714 15.99 38.407C15.4974 38.8426 15.1181 39.3915 14.8848 40.0063C14.6516 40.6211 14.5713 41.2834 14.651 41.9362C14.7306 42.5889 14.9679 43.2125 15.3422 43.7531C15.7165 44.2938 16.2167 44.7353 16.7996 45.0396C17.3825 45.344 18.0307 45.502 18.6883 45.5ZM18.6883 39C19.2511 39.0024 19.7954 39.2012 20.2272 39.5623L18.1147 41.6748L19.2635 42.8236L21.0827 41.0044C21.1717 41.4973 21.1067 42.0056 20.8966 42.4602C20.6864 42.9148 20.3414 43.2937 19.9083 43.5452C19.4752 43.7968 18.9752 43.9088 18.4762 43.8661C17.9772 43.8234 17.5034 43.628 17.1194 43.3066C16.7354 42.9851 16.4597 42.5531 16.3298 42.0694C16.2 41.5857 16.2223 41.0737 16.3938 40.6031C16.5652 40.1326 16.8774 39.7262 17.288 39.4394C17.6985 39.1525 18.1875 38.9991 18.6883 39Z" fill="url(#paint21_linear)"/>
<path d="M26.8125 39H36.5625V40.625H26.8125V39Z" fill="url(#paint22_linear)"/>
<path d="M26.8125 42.25H36.5625V43.875H26.8125V42.25Z" fill="url(#paint23_linear)"/>
<path d="M26.8125 29.25H28.4375V30.875H26.8125V29.25Z" fill="url(#paint24_linear)"/>
<defs>
<linearGradient id="paint0_linear" x1="35.0401" y1="12.9975" x2="14.7421" y2="6.26877" gradientUnits="userSpaceOnUse">
<stop stop-color="#EC7A8F"/>
<stop offset="1" stop-color="#FCAF8C"/>
</linearGradient>
<linearGradient id="paint1_linear" x1="38.9145" y1="30.0579" x2="8.84547" y2="22.0838" gradientUnits="userSpaceOnUse">
<stop stop-color="#EC7A8F"/>
<stop offset="1" stop-color="#FCAF8C"/>
</linearGradient>
<linearGradient id="paint2_linear" x1="49.7079" y1="30.0587" x2="43.2967" y2="29.6539" gradientUnits="userSpaceOnUse">
<stop stop-color="#EC7A8F"/>
<stop offset="1" stop-color="#FCAF8C"/>
</linearGradient>
<linearGradient id="paint3_linear" x1="7.45789" y1="30.0587" x2="1.04671" y2="29.6539" gradientUnits="userSpaceOnUse">
<stop stop-color="#EC7A8F"/>
<stop offset="1" stop-color="#FCAF8C"/>
</linearGradient>
<linearGradient id="paint4_linear" x1="7.79145" y1="20.3123" x2="5.55577" y2="18.8301" gradientUnits="userSpaceOnUse">
<stop stop-color="#EC7A8F"/>
<stop offset="1" stop-color="#FCAF8C"/>
</linearGradient>
<linearGradient id="paint5_linear" x1="7.79145" y1="23.5623" x2="5.55577" y2="22.0801" gradientUnits="userSpaceOnUse">
<stop stop-color="#EC7A8F"/>
<stop offset="1" stop-color="#FCAF8C"/>
</linearGradient>
<linearGradient id="paint6_linear" x1="7.79145" y1="26.8123" x2="5.55577" y2="25.3301" gradientUnits="userSpaceOnUse">
<stop stop-color="#EC7A8F"/>
<stop offset="1" stop-color="#FCAF8C"/>
</linearGradient>
<linearGradient id="paint7_linear" x1="7.79145" y1="30.0623" x2="5.55577" y2="28.5801" gradientUnits="userSpaceOnUse">
<stop stop-color="#EC7A8F"/>
<stop offset="1" stop-color="#FCAF8C"/>
</linearGradient>
<linearGradient id="paint8_linear" x1="7.79145" y1="33.3123" x2="5.55577" y2="31.8301" gradientUnits="userSpaceOnUse">
<stop stop-color="#EC7A8F"/>
<stop offset="1" stop-color="#FCAF8C"/>
</linearGradient>
<linearGradient id="paint9_linear" x1="7.79145" y1="36.5623" x2="5.55577" y2="35.0801" gradientUnits="userSpaceOnUse">
<stop stop-color="#EC7A8F"/>
<stop offset="1" stop-color="#FCAF8C"/>
</linearGradient>
<linearGradient id="paint10_linear" x1="7.79145" y1="39.8123" x2="5.55577" y2="38.3301" gradientUnits="userSpaceOnUse">
<stop stop-color="#EC7A8F"/>
<stop offset="1" stop-color="#FCAF8C"/>
</linearGradient>
<linearGradient id="paint11_linear" x1="46.7914" y1="20.3123" x2="44.5558" y2="18.8301" gradientUnits="userSpaceOnUse">
<stop stop-color="#EC7A8F"/>
<stop offset="1" stop-color="#FCAF8C"/>
</linearGradient>
<linearGradient id="paint12_linear" x1="46.7914" y1="23.5623" x2="44.5558" y2="22.0801" gradientUnits="userSpaceOnUse">
<stop stop-color="#EC7A8F"/>
<stop offset="1" stop-color="#FCAF8C"/>
</linearGradient>
<linearGradient id="paint13_linear" x1="46.7914" y1="26.8123" x2="44.5558" y2="25.3301" gradientUnits="userSpaceOnUse">
<stop stop-color="#EC7A8F"/>
<stop offset="1" stop-color="#FCAF8C"/>
</linearGradient>
<linearGradient id="paint14_linear" x1="46.7914" y1="30.0623" x2="44.5558" y2="28.5801" gradientUnits="userSpaceOnUse">
<stop stop-color="#EC7A8F"/>
<stop offset="1" stop-color="#FCAF8C"/>
</linearGradient>
<linearGradient id="paint15_linear" x1="46.7914" y1="33.3123" x2="44.5558" y2="31.8301" gradientUnits="userSpaceOnUse">
<stop stop-color="#EC7A8F"/>
<stop offset="1" stop-color="#FCAF8C"/>
</linearGradient>
<linearGradient id="paint16_linear" x1="46.7914" y1="36.5623" x2="44.5558" y2="35.0801" gradientUnits="userSpaceOnUse">
<stop stop-color="#EC7A8F"/>
<stop offset="1" stop-color="#FCAF8C"/>
</linearGradient>
<linearGradient id="paint17_linear" x1="46.7914" y1="39.8123" x2="44.5558" y2="38.3301" gradientUnits="userSpaceOnUse">
<stop stop-color="#EC7A8F"/>
<stop offset="1" stop-color="#FCAF8C"/>
</linearGradient>
<linearGradient id="paint18_linear" x1="22.4319" y1="31.6939" x2="14.7809" y2="28.972" gradientUnits="userSpaceOnUse">
<stop stop-color="#EC7A8F"/>
<stop offset="1" stop-color="#FCAF8C"/>
</linearGradient>
<linearGradient id="paint19_linear" x1="35.8954" y1="30.0623" x2="33.5617" y2="26.9679" gradientUnits="userSpaceOnUse">
<stop stop-color="#EC7A8F"/>
<stop offset="1" stop-color="#FCAF8C"/>
</linearGradient>
<linearGradient id="paint20_linear" x1="35.5618" y1="33.3123" x2="33.6137" y2="29.4375" gradientUnits="userSpaceOnUse">
<stop stop-color="#EC7A8F"/>
<stop offset="1" stop-color="#FCAF8C"/>
</linearGradient>
<linearGradient id="paint21_linear" x1="22.4319" y1="41.4439" x2="14.7809" y2="38.722" gradientUnits="userSpaceOnUse">
<stop stop-color="#EC7A8F"/>
<stop offset="1" stop-color="#FCAF8C"/>
</linearGradient>
<linearGradient id="paint22_linear" x1="35.5618" y1="39.8123" x2="33.6137" y2="35.9375" gradientUnits="userSpaceOnUse">
<stop stop-color="#EC7A8F"/>
<stop offset="1" stop-color="#FCAF8C"/>
</linearGradient>
<linearGradient id="paint23_linear" x1="35.5618" y1="43.0623" x2="33.6137" y2="39.1875" gradientUnits="userSpaceOnUse">
<stop stop-color="#EC7A8F"/>
<stop offset="1" stop-color="#FCAF8C"/>
</linearGradient>
<linearGradient id="paint24_linear" x1="28.2707" y1="30.0623" x2="26.8209" y2="29.5817" gradientUnits="userSpaceOnUse">
<stop stop-color="#EC7A8F"/>
<stop offset="1" stop-color="#FCAF8C"/>
</linearGradient>
</defs>
</svg>
