<svg width="48" height="48" viewBox="0 0 48 48" fill="none" xmlns="http://www.w3.org/2000/svg">
<g clip-path="url(#clip0)">
<path d="M34.8606 0.212403C34.679 0.0208742 34.4303 -0.09375 34.1722 -0.09375H18.7301C16.1868 -0.09375 14.0639 1.77063 13.6431 4.19935C11.5015 4.57252 9.81837 6.26478 9.44556 8.39723C6.96924 8.77955 5.06641 10.931 5.06641 13.5125V42.7142C5.06641 45.5637 7.37061 47.9063 10.2201 47.9063H31.1795C33.7228 47.9063 35.8362 46.0511 36.2665 43.6224C38.4561 43.288 40.1963 41.5668 40.5691 39.3868C42.9979 38.966 44.8432 36.8434 44.8432 34.2902V11.1127C44.8432 10.864 44.7571 10.6249 44.585 10.4433L34.8606 0.212403ZM35.0903 3.28162L41.6689 10.1375H37.4234C36.1611 10.1375 35.0903 9.12379 35.0903 7.86146V3.28162ZM31.1795 45.994H10.2201C8.42237 45.994 6.97876 44.5119 6.97876 42.7142V13.5128C6.97876 12.0209 7.93494 10.7589 9.36902 10.3766V38.5071C9.36902 41.3566 11.6736 43.6993 14.5227 43.6993H34.2872C33.8759 45.0378 32.6425 45.994 31.1795 45.994ZM35.4825 41.7869H14.5227C12.7349 41.7869 11.2814 40.3049 11.2814 38.5071V9.30543C11.2814 7.84242 12.2376 6.60902 13.5761 6.19776V34.3001C13.5761 37.1492 15.8806 39.4919 18.7301 39.4919H38.5898C38.1789 40.8307 36.9451 41.7869 35.4825 41.7869ZM39.6895 37.5795H18.7301C16.9419 37.5795 15.4888 36.0975 15.4888 34.2997V5.0984C15.4888 3.31019 16.9324 1.81861 18.7301 1.81861H33.1779V7.86146C33.1779 10.1851 35.0998 12.0498 37.4234 12.0498H42.9308V34.2997C42.9308 36.0975 41.4872 37.5795 39.6895 37.5795Z" fill="url(#paint0_linear)"/>
<path d="M37.0816 31.4602H21.3429C20.817 31.4602 20.3867 31.8905 20.3867 32.4164C20.3867 32.9423 20.817 33.3726 21.3429 33.3726H37.0911C37.617 33.3726 38.0473 32.9423 38.0473 32.4164C38.0473 31.8905 37.617 31.4602 37.0816 31.4602Z" fill="url(#paint1_linear)"/>
<path d="M28.5085 27.5493C28.6905 27.7405 28.9388 27.8551 29.2065 27.8551C29.4746 27.8551 29.7229 27.7405 29.9045 27.5493L35.5079 21.535C35.8712 21.1524 35.8427 20.5404 35.46 20.1867C35.0776 19.8329 34.4467 19.8519 34.0834 20.2346L30.1151 24.4702V14.0288C30.1151 13.5029 29.6848 13.0726 29.1589 13.0726C28.633 13.0726 28.2028 13.5029 28.2028 14.0288V24.4706L24.2825 20.2346C23.9192 19.8523 23.3263 19.8234 22.9436 20.1867C22.5613 20.5503 22.5422 21.1527 22.9055 21.535L28.5085 27.5493Z" fill="url(#paint2_linear)"/>
</g>
<defs>
<linearGradient id="paint0_linear" x1="40.7608" y1="23.9009" x2="4.13501" y2="13.8397" gradientUnits="userSpaceOnUse">
<stop stop-color="#EC7A8F"/>
<stop offset="1" stop-color="#FCAF8C"/>
</linearGradient>
<linearGradient id="paint1_linear" x1="36.2347" y1="32.4162" x2="34.5486" y2="27.2542" gradientUnits="userSpaceOnUse">
<stop stop-color="#EC7A8F"/>
<stop offset="1" stop-color="#FCAF8C"/>
</linearGradient>
<linearGradient id="paint2_linear" x1="34.4179" y1="20.4622" x2="22.4607" y2="16.9443" gradientUnits="userSpaceOnUse">
<stop stop-color="#EC7A8F"/>
<stop offset="1" stop-color="#FCAF8C"/>
</linearGradient>
<clipPath id="clip0">
<rect width="48" height="48" fill="white"/>
</clipPath>
</defs>
</svg>
