<svg width="48" height="48" viewBox="0 0 48 48" fill="none" xmlns="http://www.w3.org/2000/svg">
<g clip-path="url(#clip0)">
<path d="M10.2791 38.4258H4.53125C4.14294 38.4258 3.82812 38.7406 3.82812 39.1289C3.82812 39.5172 4.14294 39.832 4.53125 39.832H10.2791C10.6674 39.832 10.9822 39.5172 10.9822 39.1289C10.9822 38.7406 10.6674 38.4258 10.2791 38.4258Z" fill="url(#paint0_linear)"/>
<path d="M10.2791 41.8945H4.53125C4.14294 41.8945 3.82812 42.2093 3.82812 42.5977C3.82812 42.986 4.14294 43.3008 4.53125 43.3008H10.2791C10.6674 43.3008 10.9822 42.986 10.9822 42.5977C10.9822 42.2093 10.6674 41.8945 10.2791 41.8945Z" fill="url(#paint1_linear)"/>
<path d="M9.15119 4.69922H5.66406C4.60431 4.69922 3.74219 5.56134 3.74219 6.62109V28.1534C3.74219 28.5417 4.057 28.8565 4.44531 28.8565C4.83362 28.8565 5.14844 28.5417 5.14844 28.1534V6.62109C5.14844 6.33675 5.37972 6.10547 5.66406 6.10547H9.15119C9.43553 6.10547 9.66681 6.33675 9.66681 6.62109V33.9961C9.66681 34.2804 9.43553 34.5117 9.15119 34.5117H5.66406C5.37972 34.5117 5.14844 34.2804 5.14844 33.9961V30.9659C5.14844 30.5776 4.83362 30.2628 4.44531 30.2628C4.057 30.2628 3.74219 30.5776 3.74219 30.9659V33.9961C3.74219 35.0558 4.60431 35.918 5.66406 35.918H9.15119C10.2109 35.918 11.0731 35.0558 11.0731 33.9961V6.62109C11.0731 5.56134 10.2109 4.69922 9.15119 4.69922Z" fill="url(#paint2_linear)"/>
<path d="M17.7578 10.8516C17.3695 10.8516 17.0547 11.1664 17.0547 11.5547V42.4922C17.0547 42.8805 17.3695 43.1953 17.7578 43.1953C18.1461 43.1953 18.4609 42.8805 18.4609 42.4922V11.5547C18.4609 11.1664 18.1462 10.8516 17.7578 10.8516Z" fill="url(#paint3_linear)"/>
<path d="M20.5 36.1641C20.1117 36.1641 19.7969 36.4789 19.7969 36.8672V42.4922C19.7969 42.8805 20.1117 43.1953 20.5 43.1953C20.8883 43.1953 21.2031 42.8805 21.2031 42.4922V36.8672C21.2031 36.4789 20.8883 36.1641 20.5 36.1641Z" fill="url(#paint4_linear)"/>
<path d="M20.5 10.8516C20.1117 10.8516 19.7969 11.1664 19.7969 11.5547V34.0547C19.7969 34.443 20.1117 34.7578 20.5 34.7578C20.8883 34.7578 21.2031 34.443 21.2031 34.0547V11.5547C21.2031 11.1664 20.8883 10.8516 20.5 10.8516Z" fill="url(#paint5_linear)"/>
<path d="M43.4258 26.1529C43.1043 25.9348 42.6671 26.0186 42.4491 26.34C42.2311 26.6614 42.3148 27.0986 42.6362 27.3166C45.1144 28.9978 46.5938 31.7866 46.5938 34.7767C46.5938 39.7435 42.5527 43.7844 37.5859 43.7844C32.619 43.7844 28.578 39.7435 28.578 34.7767C28.578 28.7127 34.4916 24.3536 40.2979 26.184C40.6681 26.3008 41.0632 26.0952 41.1799 25.7248C41.2966 25.3544 41.091 24.9595 40.7207 24.8428C39.5025 24.4588 38.2197 24.302 36.9197 24.3845V4.17188C36.9197 3.11212 36.0576 2.25 34.9978 2.25H25.3547C24.2949 2.25 23.4328 3.11212 23.4328 4.17188V6.04688H14.8127V1.92188C14.8127 0.862125 13.9506 0 12.8908 0H1.92188C0.862125 0 0 0.862125 0 1.92188V46.0781C0 47.1379 0.862125 48 1.92188 48H34.9978C36.0576 48 36.9197 47.1379 36.9197 46.0781V45.1687C42.9428 45.551 48 40.7551 48 34.7767C48 31.3199 46.29 28.096 43.4258 26.1529ZM13.4052 46.5938H1.92188C1.63753 46.5938 1.40625 46.3625 1.40625 46.0781V1.92188C1.40625 1.63753 1.63753 1.40625 1.92188 1.40625H12.8908C13.1752 1.40625 13.4064 1.63753 13.4064 1.92188C13.4064 3.13819 13.4052 1.28981 13.4052 46.5938ZM14.8127 46.5938V7.45312H23.4328V46.0781C23.4328 46.0781 23.4417 46.2012 23.4417 46.5938H14.8127ZM31.7719 26.1405C30.4685 27.0208 29.3745 28.1883 28.5806 29.5511V8.76562C28.5806 8.48128 28.812 8.25 29.0962 8.25H31.2562C31.5405 8.25 31.7719 8.48128 31.7719 8.76562V26.1405ZM35.5134 46.0781C35.5134 46.3625 35.2821 46.5938 34.9978 46.5938H25.3547C25.1023 46.5938 24.892 46.4112 24.848 46.1714C24.848 7.98122 24.8391 4.17188 24.8391 4.17188C24.8391 3.88753 25.0704 3.65625 25.3547 3.65625H34.9978C35.2821 3.65625 35.5134 3.88753 35.5134 4.17188V24.57C34.6964 24.7357 33.9141 24.9976 33.1782 25.3429V8.76562C33.1782 7.70587 32.3161 6.84375 31.2563 6.84375H29.0963C28.0366 6.84375 27.1745 7.70587 27.1745 8.76562C27.1745 8.81831 27.1743 34.4821 27.1749 34.5346C27.057 39.6711 30.6821 44.0038 35.5135 44.9833V46.0781H35.5134Z" fill="url(#paint6_linear)"/>
<path d="M37.586 41.0422C38.7836 41.0422 39.7579 40.0679 39.7579 38.8703V36.9485H41.6857C42.88 36.9485 43.8517 35.9768 43.8517 34.7825V34.7706C43.8517 33.5764 42.8801 32.6046 41.6857 32.6046H39.7579V30.6828C39.7579 29.4852 38.7836 28.5109 37.586 28.5109C36.3884 28.5109 35.4141 29.4852 35.4141 30.6828V32.6046H33.4863C32.3127 32.6046 31.3203 33.5511 31.3203 34.7824C31.3203 35.9766 32.2919 36.9484 33.4863 36.9484H35.4141V38.8702C35.4141 40.068 36.3884 41.0422 37.586 41.0422ZM33.4863 35.5422C33.0831 35.5422 32.7266 35.2217 32.7266 34.7707C32.7266 34.3519 33.0673 34.011 33.4863 34.011H36.1172C36.5056 34.011 36.8203 33.6962 36.8203 33.3079V30.6829C36.8203 30.2607 37.1638 29.9172 37.586 29.9172C38.0082 29.9172 38.3517 30.2607 38.3517 30.6829V33.3079C38.3517 33.6962 38.6664 34.011 39.0548 34.011H41.6857C42.0889 34.011 42.4454 34.3315 42.4454 34.7825C42.4454 35.2013 42.1047 35.5422 41.6857 35.5422H39.0548C38.6664 35.5422 38.3517 35.857 38.3517 36.2453V38.8703C38.3517 39.2925 38.0082 39.636 37.586 39.636C37.1638 39.636 36.8203 39.2925 36.8203 38.8703V36.2453C36.8203 35.857 36.5056 35.5422 36.1172 35.5422H33.4863Z" fill="url(#paint7_linear)"/>
</g>
<defs>
<linearGradient id="paint0_linear" x1="10.248" y1="39.1287" x2="8.40497" y2="36.0207" gradientUnits="userSpaceOnUse">
<stop stop-color="#EC7A8F"/>
<stop offset="1" stop-color="#FCAF8C"/>
</linearGradient>
<linearGradient id="paint1_linear" x1="10.248" y1="42.5975" x2="8.40497" y2="39.4895" gradientUnits="userSpaceOnUse">
<stop stop-color="#EC7A8F"/>
<stop offset="1" stop-color="#FCAF8C"/>
</linearGradient>
<linearGradient id="paint2_linear" x1="10.3207" y1="20.3051" x2="3.10488" y2="19.7434" gradientUnits="userSpaceOnUse">
<stop stop-color="#EC7A8F"/>
<stop offset="1" stop-color="#FCAF8C"/>
</linearGradient>
<linearGradient id="paint3_linear" x1="18.3166" y1="27.0198" x2="16.9243" y2="26.9997" gradientUnits="userSpaceOnUse">
<stop stop-color="#EC7A8F"/>
<stop offset="1" stop-color="#FCAF8C"/>
</linearGradient>
<linearGradient id="paint4_linear" x1="21.0588" y1="39.6789" x2="19.6723" y2="39.587" gradientUnits="userSpaceOnUse">
<stop stop-color="#EC7A8F"/>
<stop offset="1" stop-color="#FCAF8C"/>
</linearGradient>
<linearGradient id="paint5_linear" x1="21.0588" y1="22.802" x2="19.6668" y2="22.7749" gradientUnits="userSpaceOnUse">
<stop stop-color="#EC7A8F"/>
<stop offset="1" stop-color="#FCAF8C"/>
</linearGradient>
<linearGradient id="paint6_linear" x1="43.0737" y1="23.9946" x2="0.246969" y2="9.79785" gradientUnits="userSpaceOnUse">
<stop stop-color="#EC7A8F"/>
<stop offset="1" stop-color="#FCAF8C"/>
</linearGradient>
<linearGradient id="paint7_linear" x1="42.5656" y1="34.7751" x2="31.3848" y2="31.0688" gradientUnits="userSpaceOnUse">
<stop stop-color="#EC7A8F"/>
<stop offset="1" stop-color="#FCAF8C"/>
</linearGradient>
<clipPath id="clip0">
<rect width="48" height="48" fill="white"/>
</clipPath>
</defs>
</svg>
