<svg width="65" height="65" viewBox="0 0 65 65" fill="none" xmlns="http://www.w3.org/2000/svg">
<path d="M32.1905 64.8097C49.9404 64.8097 64.381 50.3691 64.381 32.6192C64.381 14.8693 49.9404 0.428711 32.1905 0.428711C14.4405 0.428711 0 14.8693 0 32.6192C0 50.3691 14.4405 64.8097 32.1905 64.8097ZM32.1905 3.2992C48.3578 3.2992 61.5105 16.4519 61.5105 32.6192C61.5105 48.7865 48.3578 61.9392 32.1905 61.9392C16.0232 61.9392 2.87049 48.7865 2.87049 32.6192C2.87049 16.4519 16.0232 3.2992 32.1905 3.2992Z" fill="url(#paint0_linear)"/>
<path d="M24.2522 29.7264C27.5352 29.7264 30.1958 27.0649 30.1958 23.7828C30.1966 20.4998 27.5352 17.8384 24.2522 17.8384C20.9692 17.8384 18.3086 20.4998 18.3086 23.782C18.3118 27.0633 20.9708 29.7224 24.2522 29.7264ZM24.2522 20.7089C25.9493 20.7089 27.3253 22.0848 27.3253 23.782C27.3261 25.4799 25.9501 26.8559 24.2522 26.8559C22.5551 26.8559 21.1791 25.4799 21.1791 23.782C21.1807 22.0856 22.5559 20.7113 24.2522 20.7089Z" fill="url(#paint1_linear)"/>
<path d="M33.8242 41.8165C33.8242 45.0994 36.4857 47.7601 39.7678 47.7601C43.0508 47.7601 45.7122 45.0994 45.7122 41.8165C45.7122 38.5335 43.0508 35.8721 39.7678 35.8721C36.4865 35.8761 33.8282 38.5351 33.8242 41.8165ZM42.8417 41.8165C42.8417 43.5136 41.4658 44.8896 39.7678 44.8896C38.0707 44.8896 36.6947 43.5136 36.6947 41.8165C36.6947 40.1193 38.0707 38.7434 39.7678 38.7426C41.465 38.745 42.8393 40.1193 42.8417 41.8165Z" fill="url(#paint2_linear)"/>
<path d="M21.2647 49.376C21.9287 49.8093 22.8185 49.6218 23.251 48.9579L43.5399 17.8486C43.821 17.4185 43.8514 16.8715 43.62 16.4134C43.3877 15.9553 42.9288 15.6557 42.4162 15.6285C41.9036 15.6013 41.415 15.8495 41.1355 16.2804L20.8467 47.3897C20.4134 48.0544 20.6008 48.9435 21.2647 49.376Z" fill="url(#paint3_linear)"/>
<defs>
<linearGradient id="paint0_linear" x1="57.7734" y1="32.612" x2="0.331252" y2="13.5703" gradientUnits="userSpaceOnUse">
<stop stop-color="#EC7A8F"/>
<stop offset="1" stop-color="#FCAF8C"/>
</linearGradient>
<linearGradient id="paint1_linear" x1="28.9758" y1="23.7811" x2="18.3696" y2="20.2654" gradientUnits="userSpaceOnUse">
<stop stop-color="#EC7A8F"/>
<stop offset="1" stop-color="#FCAF8C"/>
</linearGradient>
<linearGradient id="paint2_linear" x1="44.4922" y1="41.8147" x2="33.8854" y2="38.2987" gradientUnits="userSpaceOnUse">
<stop stop-color="#EC7A8F"/>
<stop offset="1" stop-color="#FCAF8C"/>
</linearGradient>
<linearGradient id="paint3_linear" x1="41.3973" y1="32.6141" x2="19.5755" y2="27.6839" gradientUnits="userSpaceOnUse">
<stop stop-color="#EC7A8F"/>
<stop offset="1" stop-color="#FCAF8C"/>
</linearGradient>
</defs>
</svg>
