<svg width="78" height="78" viewBox="0 0 78 78" fill="none" xmlns="http://www.w3.org/2000/svg">
<circle cx="39" cy="39" r="38.5" fill="white" stroke="url(#paint0_linear)"/>
<g clip-path="url(#clip0)">
<path d="M60.817 40.1818C60.1625 40.1818 59.7262 40.6182 59.7262 41.2726V55.4545C59.7262 56.109 59.2898 56.5454 58.6353 56.5454H19.3625C18.7079 56.5454 18.2716 56.109 18.2716 55.4545V41.2726C18.2716 40.6181 17.8352 40.1818 17.1807 40.1818C16.5263 40.1818 16.0898 40.6182 16.0898 41.2726V55.4545C16.0898 57.309 17.508 58.7272 19.3626 58.7272H58.6353C60.4898 58.7272 61.908 57.309 61.908 55.4545V41.2726C61.908 40.6181 61.4716 40.1818 60.817 40.1818Z" fill="url(#paint1_linear)"/>
<path d="M59.7273 24.9092H18.2727C16.4182 24.9092 15 26.3273 15 28.1819V35.1637C15 36.6909 16.0909 38.0001 17.5091 38.3273L34.6364 42.1455V45.6364C34.6364 46.2909 35.0728 46.7272 35.7273 46.7272H42.2727C42.9273 46.7272 43.3636 46.2908 43.3636 45.6364V42.1455L60.4909 38.3273C61.9091 38.0001 63 36.6909 63 35.1636V28.1818C63 26.3273 61.5818 24.9092 59.7273 24.9092ZM41.1818 44.5455H36.8182V40.1819H41.1818V44.5455ZM60.8182 35.1636C60.8182 35.7091 60.4909 36.1455 59.9454 36.2545L43.3636 39.9636V39.0909C43.3636 38.4364 42.9272 38.0001 42.2727 38.0001H35.7273C35.0727 38.0001 34.6364 38.4365 34.6364 39.0909V39.9636L18.0546 36.2546C17.5091 36.1455 17.1818 35.7092 17.1818 35.1637V28.1819C17.1818 27.5273 17.6183 27.091 18.2727 27.091H59.7273C60.3818 27.091 60.8182 27.5274 60.8182 28.1819V35.1636Z" fill="url(#paint2_linear)"/>
<path d="M44.4553 17.2727H33.5462C31.6916 17.2727 30.2734 18.6909 30.2734 20.5454V21.6363C30.2734 22.2909 30.7098 22.7272 31.3643 22.7272C32.0188 22.7272 32.4552 22.2908 32.4552 21.6363V20.5454C32.4552 19.8909 32.8916 19.4545 33.5461 19.4545H44.4552C45.1098 19.4545 45.5461 19.891 45.5461 20.5454V21.6363C45.5461 22.2909 45.9825 22.7272 46.6369 22.7272C47.2915 22.7272 47.7278 22.2908 47.7278 21.6363V20.5454C47.728 18.6909 46.3098 17.2727 44.4553 17.2727Z" fill="url(#paint3_linear)"/>
</g>
<defs>
<linearGradient id="paint0_linear" x1="69.9947" y1="38.9913" x2="0.401324" y2="15.9215" gradientUnits="userSpaceOnUse">
<stop stop-color="#EC7A8F"/>
<stop offset="1" stop-color="#FCAF8C"/>
</linearGradient>
<linearGradient id="paint1_linear" x1="57.2056" y1="49.4524" x2="30.0486" y2="27.2112" gradientUnits="userSpaceOnUse">
<stop stop-color="#EC7A8F"/>
<stop offset="1" stop-color="#FCAF8C"/>
</linearGradient>
<linearGradient id="paint2_linear" x1="58.0737" y1="35.8158" x2="27.0442" y2="13.1863" gradientUnits="userSpaceOnUse">
<stop stop-color="#EC7A8F"/>
<stop offset="1" stop-color="#FCAF8C"/>
</linearGradient>
<linearGradient id="paint3_linear" x1="45.9364" y1="19.9993" x2="37.8036" y2="11.3721" gradientUnits="userSpaceOnUse">
<stop stop-color="#EC7A8F"/>
<stop offset="1" stop-color="#FCAF8C"/>
</linearGradient>
<clipPath id="clip0">
<rect x="15" y="14" width="48" height="48" fill="white"/>
</clipPath>
</defs>
</svg>
