<svg width="78" height="78" viewBox="0 0 78 78" fill="none" xmlns="http://www.w3.org/2000/svg">
<circle cx="39" cy="39" r="38.5" fill="white" stroke="url(#paint0_linear)"/>
<path d="M60.4216 24.3463C60.3131 23.1289 59.3095 22.2108 58.0872 22.2108H52.0237V21.3172H52.1417C53.0076 21.3172 53.712 20.6128 53.712 19.747V17.5702C53.712 16.7044 53.0076 16 52.1417 16H34.2952C33.9069 16 33.5921 16.3147 33.5921 16.7031C33.5921 17.0915 33.9069 17.4062 34.2952 17.4062H52.1417C52.2322 17.4062 52.3058 17.4797 52.3058 17.5702V19.747C52.3058 19.8375 52.2322 19.911 52.1417 19.911H25.8546C25.7642 19.911 25.6906 19.8375 25.6906 19.747V17.5702C25.6906 17.4797 25.7642 17.4062 25.8546 17.4062H30.9986C31.3869 17.4062 31.7017 17.0915 31.7017 16.7031C31.7017 16.3147 31.3869 16 30.9986 16H25.8546C24.9888 16 24.2844 16.7044 24.2844 17.5702V19.747C24.2844 20.6128 24.9888 21.3172 25.8546 21.3172H25.9727V22.2108H19.9091C18.6869 22.2108 17.6833 23.1289 17.5748 24.3463C17.5605 24.5054 17.2446 28.295 18.7964 32.492C20.2162 36.332 23.4735 41.2352 30.9366 43.1594C32.1381 44.1087 33.51 44.8515 34.9984 45.3329L35.3523 45.917C36.0212 47.0213 36.3747 48.3267 36.3747 49.6921C36.3747 50.5262 36.2418 51.341 35.9796 52.1138L35.4882 53.562H33.8532C32.1753 53.562 30.8102 54.9271 30.8102 56.6051V58.0779H28.2513C27.5291 58.0779 26.9416 58.6655 26.9416 59.3877V62.6904C26.9416 63.4125 27.5291 64 28.2513 64H49.7452C50.4673 64 51.0548 63.4125 51.0548 62.6904V59.3877C51.0548 58.6655 50.4673 58.0779 49.7452 58.0779H47.1863V56.6051C47.1863 54.9271 45.8212 53.562 44.1433 53.562H42.5082L42.0168 52.1138C41.7546 51.3411 41.6217 50.5263 41.6217 49.6921C41.6217 48.3268 41.9752 47.0214 42.6441 45.917L42.998 45.3329C44.4864 44.8515 45.8582 44.1088 47.0597 43.1594C54.5229 41.2352 57.7802 36.332 59.2 32.492C60.7518 28.295 60.4359 24.5055 60.4216 24.3463ZM26.233 35.5325C24.9221 34.3051 23.9177 32.7826 23.2309 30.9679C22.7536 29.7071 22.4412 28.3381 22.3022 26.8981H25.9727V32.9365C25.9727 33.8252 26.0626 34.6933 26.233 35.5325ZM20.1154 32.0044C18.6722 28.101 18.9624 24.6176 18.9754 24.4712C19.0188 23.9843 19.4203 23.6171 19.9091 23.6171H25.9727V25.492H22.244C21.8641 25.492 21.4997 25.653 21.2439 25.9337C20.9879 26.2147 20.8613 26.5931 20.8967 26.9718C21.0447 28.5583 21.3875 30.0703 21.9157 31.4658C22.9588 34.2218 24.6473 36.3737 26.9585 37.9057C27.4133 39.0033 28.0139 40.0257 28.7363 40.9487C23.6423 38.8372 21.2433 35.0547 20.1154 32.0044ZM49.6486 59.4841V62.5938H28.3477V59.4841H49.6486ZM44.1433 54.9682C45.0458 54.9682 45.7801 55.7025 45.7801 56.6051V58.0779H32.2164V56.6051C32.2164 55.7025 32.9507 54.9682 33.8532 54.9682H44.1433ZM40.6853 52.5656L41.0233 53.562H36.973L37.3111 52.5655C37.6227 51.6469 37.7808 50.6802 37.7808 49.6921C37.7808 48.3091 37.4717 46.9739 36.8839 45.7896C37.5723 45.9024 38.2783 45.962 38.9982 45.962C39.718 45.962 40.4241 45.9024 41.1124 45.7896C40.5246 46.9739 40.2155 48.3091 40.2155 49.6921C40.2156 50.6803 40.3735 51.647 40.6853 52.5656ZM38.9982 44.5558C32.5913 44.5558 27.3789 39.3434 27.3789 32.9365V21.3172H50.6175V32.9365C50.6175 39.3434 45.4051 44.5558 38.9982 44.5558ZM57.8811 32.0044C56.7532 35.0548 54.3541 38.8377 49.2598 40.9491C49.9835 40.0245 50.5851 39.0001 51.0402 37.9003C53.0247 36.5825 54.5531 34.8077 55.6055 32.5854C55.7717 32.2345 55.6219 31.8151 55.271 31.649C54.9202 31.4829 54.501 31.6325 54.3347 31.9835C53.6831 33.3594 52.8238 34.5448 51.7628 35.5368C51.9338 34.6963 52.0239 33.8268 52.0239 32.9366V26.8982H55.6944C55.6244 27.6217 55.5082 28.3391 55.3487 29.0317C55.2616 29.4102 55.4978 29.7876 55.8762 29.8746C56.2543 29.9621 56.632 29.7256 56.7191 29.3472C56.8967 28.5757 57.0247 27.7765 57.0999 26.9718C57.1352 26.5931 57.0087 26.2147 56.7527 25.9337C56.4969 25.653 56.1324 25.492 55.7526 25.492H52.0239V23.6171H58.0874C58.5763 23.6171 58.9777 23.9843 59.0211 24.4713C59.034 24.6176 59.3242 28.101 57.8811 32.0044Z" fill="url(#paint1_linear)"/>
<path d="M43.6242 29.6554L41.6081 29.3625C41.5203 29.3496 41.4444 29.2945 41.4051 29.215L40.5035 27.3881C40.2192 26.8119 39.6434 26.454 39.0008 26.454C38.3583 26.454 37.7825 26.8119 37.4982 27.3881L36.5965 29.215C36.5572 29.2946 36.4814 29.3497 36.3936 29.3625L34.3774 29.6554C33.7416 29.7478 33.2232 30.1847 33.0247 30.7958C32.8261 31.407 32.9886 32.0652 33.4487 32.5138L34.9076 33.9357C34.9711 33.9977 35.0001 34.0868 34.9851 34.1744L34.6407 36.1824C34.532 36.8157 34.7875 37.4436 35.3073 37.8213C35.827 38.1988 36.5033 38.2479 37.0722 37.9489L38.8754 37.0008C38.954 36.9595 39.0477 36.9595 39.1263 37.0008L40.9296 37.9489C41.177 38.0789 41.4446 38.1431 41.7109 38.1431C42.0569 38.1431 42.4006 38.0347 42.6943 37.8212C43.2142 37.4435 43.4696 36.8155 43.361 36.1823L43.0166 34.1743C43.0016 34.0867 43.0305 33.9976 43.0941 33.9357L44.5531 32.5136C45.0132 32.0651 45.1756 31.4068 44.9771 30.7958C44.7785 30.1847 44.26 29.7478 43.6242 29.6554ZM43.5714 31.5067L42.1125 32.9289C41.7175 33.3139 41.5373 33.8683 41.6305 34.412L41.9749 36.4201C41.9996 36.5638 41.9183 36.6469 41.8677 36.6838C41.8172 36.7206 41.7129 36.7724 41.5838 36.7043L39.7805 35.7563C39.5364 35.6279 39.2686 35.5637 39.0007 35.5637C38.7329 35.5637 38.4651 35.6279 38.221 35.7563L36.4177 36.7043C36.2887 36.7723 36.1845 36.7205 36.1338 36.6838C36.0832 36.6469 36.002 36.5639 36.0265 36.4201L36.371 34.412C36.4642 33.8683 36.2841 33.3139 35.889 32.9288L34.4301 31.5068C34.3257 31.405 34.3425 31.29 34.3619 31.2305C34.3812 31.1709 34.4352 31.068 34.5795 31.047L36.5956 30.754C37.1416 30.6746 37.6132 30.332 37.8573 29.8374L38.759 28.0105C38.8235 27.8797 38.9381 27.8602 39.0006 27.8602C39.0632 27.8602 39.1778 27.8797 39.2423 28.0105L40.144 29.8374C40.3881 30.332 40.8597 30.6747 41.4057 30.754L43.4219 31.047C43.5662 31.068 43.6202 31.1709 43.6395 31.2305C43.659 31.29 43.6758 31.405 43.5714 31.5067Z" fill="url(#paint2_linear)"/>
<defs>
<linearGradient id="paint0_linear" x1="69.9947" y1="38.9913" x2="0.401324" y2="15.9215" gradientUnits="userSpaceOnUse">
<stop stop-color="#EC7A8F"/>
<stop offset="1" stop-color="#FCAF8C"/>
</linearGradient>
<linearGradient id="paint1_linear" x1="56.0525" y1="39.9946" x2="16.9842" y2="28.4148" gradientUnits="userSpaceOnUse">
<stop stop-color="#EC7A8F"/>
<stop offset="1" stop-color="#FCAF8C"/>
</linearGradient>
<linearGradient id="paint2_linear" x1="43.8166" y1="32.2972" x2="33.0833" y2="28.6084" gradientUnits="userSpaceOnUse">
<stop stop-color="#EC7A8F"/>
<stop offset="1" stop-color="#FCAF8C"/>
</linearGradient>
</defs>
</svg>
