<svg width="78" height="78" viewBox="0 0 78 78" fill="none" xmlns="http://www.w3.org/2000/svg">
<circle cx="39" cy="39" r="38.5" fill="white" stroke="url(#paint0_linear)"/>
<path d="M64.6675 35.9571L63.287 33.5659C63.0012 33.0709 62.3685 32.9012 61.873 33.187C61.3779 33.4728 61.2082 34.1059 61.4941 34.601L62.8747 36.9922C62.9475 37.1183 62.9313 37.2384 62.9151 37.2987C62.899 37.3591 62.8529 37.4713 62.7268 37.544L59.0762 39.6518C58.883 39.7629 58.6356 39.6966 58.5242 39.5039L51.18 26.7836C51.0686 26.5907 51.135 26.3431 51.3279 26.2316L54.9785 24.124C55.1715 24.0128 55.4193 24.0788 55.5306 24.2718L56.8361 26.533C57.122 27.0282 57.755 27.1979 58.25 26.9119C58.7451 26.6261 58.9148 25.993 58.6289 25.4979L57.3234 23.2366C56.6413 22.0553 55.1253 21.6488 53.9435 22.331L50.2928 24.4387C49.7382 24.759 49.3545 25.263 49.1739 25.8298H38.8247C37.3717 25.8298 36.0056 26.3956 34.978 27.4231L33.9177 28.4835C32.9879 28.2619 32.0354 28.1479 31.0775 28.1479H27.864C27.7035 27.5278 27.3047 26.9696 26.7074 26.6247L23.0567 24.517C22.4843 24.1865 21.8173 24.0988 21.1791 24.2698C20.5407 24.4408 20.0071 24.8503 19.6767 25.4226L12.3326 38.143C12.0022 38.7153 11.9143 39.3821 12.0853 40.0206C12.2563 40.659 12.6658 41.1926 13.2382 41.523L16.8889 43.6307C17.2776 43.8551 17.7023 43.9617 18.1219 43.9617C18.2747 43.9617 18.4268 43.9469 18.5763 43.9192L21.5643 46.9073C21.5185 47.1421 21.4948 47.383 21.4948 47.6277C21.4948 48.6224 21.8822 49.5576 22.5855 50.2609C23.259 50.9342 24.1283 51.2948 25.0118 51.3435C24.9982 51.4733 24.9908 51.6044 24.9908 51.7366C24.9908 52.7314 25.3782 53.6665 26.0816 54.3698C26.7849 55.0732 27.7201 55.4605 28.7147 55.4605C28.7417 55.4605 28.7684 55.4592 28.7953 55.4585C28.7947 55.4855 28.7934 55.5122 28.7934 55.5392C28.7934 56.5339 29.1807 57.4691 29.8841 58.1723C30.5875 58.8757 31.5226 59.263 32.5172 59.263C32.5443 59.263 32.571 59.2617 32.5979 59.2611C32.5973 59.288 32.5959 59.3147 32.5959 59.3417C32.5959 60.3364 32.9832 61.2716 33.6866 61.9749C34.39 62.6781 35.3251 63.0656 36.3198 63.0656C37.3144 63.0656 38.2497 62.6782 38.9529 61.9749L40.4255 60.5024C40.8572 60.0706 41.1595 59.5581 41.3345 59.0132C41.9887 59.4959 42.7661 59.7374 43.5438 59.7373C44.4973 59.7372 45.4511 59.3743 46.177 58.6484C46.6113 58.2141 46.9246 57.6912 47.1012 57.1208C47.7005 57.5125 48.4004 57.7233 49.1331 57.7233C50.1277 57.7233 51.063 57.336 51.7662 56.6326C52.2889 56.1098 52.6367 55.4592 52.7811 54.7511C53.1549 54.8749 53.5499 54.9403 53.9552 54.9403C54.9499 54.9403 55.8852 54.5529 56.5885 53.8494C58.0403 52.3975 58.0403 50.035 56.5885 48.583L54.1725 46.1671L58.5824 41.7571C58.6803 41.7688 58.779 41.7754 58.878 41.7754C59.2976 41.7754 59.7224 41.6688 60.111 41.4445L63.7617 39.3369C64.334 39.0064 64.7435 38.4729 64.9146 37.8344C65.0857 37.1959 64.9979 36.5294 64.6675 35.9571ZM14.2733 39.7301C14.1472 39.6574 14.1012 39.5453 14.0851 39.4848C14.0689 39.4245 14.0527 39.3044 14.1255 39.1782L21.4697 26.4578C21.5424 26.3317 21.6546 26.2857 21.715 26.2696C21.7408 26.2627 21.7774 26.2558 21.8207 26.2558C21.8789 26.2558 21.9492 26.2683 22.0215 26.3099L25.6722 28.4177C25.865 28.529 25.9315 28.7766 25.8201 28.9696L18.476 41.6899C18.3645 41.8828 18.1171 41.9492 17.924 41.8379L14.2733 39.7301ZM23.5651 47.6276C23.5651 47.1858 23.7371 46.7706 24.0495 46.4582L24.9428 45.5649C25.2651 45.2425 25.6886 45.0813 26.1122 45.0813C26.5356 45.0813 26.9591 45.2426 27.2815 45.5649C27.5939 45.8773 27.7659 46.2925 27.7659 46.7342C27.7659 47.1759 27.5939 47.5912 27.2815 47.9035L26.3882 48.7968C25.7434 49.4417 24.6943 49.4416 24.0495 48.7968C23.7371 48.4846 23.5651 48.0693 23.5651 47.6276ZM28.7148 53.3903C28.273 53.3903 27.8578 53.2182 27.5455 52.9059C27.2331 52.5936 27.0611 52.1783 27.0611 51.7366C27.0611 51.295 27.2331 50.8797 27.5455 50.5674L29.018 49.0949C29.3403 48.7726 29.7638 48.6114 30.1873 48.6114C30.6108 48.6114 31.0343 48.7726 31.3567 49.0949C31.6691 49.4072 31.8411 49.8225 31.8411 50.2642C31.8411 50.7059 31.6691 51.1212 31.3567 51.4335L29.8842 52.9059C29.5718 53.2183 29.1565 53.3903 28.7148 53.3903ZM32.5173 57.1929C32.0755 57.1929 31.6604 57.0209 31.3481 56.7086C31.0357 56.3963 30.8636 55.981 30.8636 55.5393C30.8636 55.0976 31.0357 54.6823 31.3481 54.3699L32.8205 52.8974C33.1429 52.5751 33.5663 52.4139 33.9898 52.4139C34.4133 52.4139 34.8368 52.5751 35.1592 52.8975C35.4716 53.2098 35.6436 53.6251 35.6436 54.0668C35.6436 54.5085 35.4716 54.9238 35.1592 55.2361L33.6867 56.7086C33.3744 57.0209 32.9591 57.1929 32.5173 57.1929ZM38.9617 59.0386L37.4892 60.5112C37.1769 60.8235 36.7617 60.9955 36.3199 60.9955C35.8781 60.9955 35.4629 60.8235 35.1506 60.5112C34.8382 60.1988 34.6662 59.7836 34.6662 59.3419C34.6662 58.9001 34.8382 58.4849 35.1506 58.1725L36.6231 56.7001C36.9454 56.3776 37.3689 56.2165 37.7924 56.2165C38.2158 56.2165 38.6394 56.3777 38.9617 56.7C39.6065 57.3446 39.6065 58.3938 38.9617 59.0386ZM55.1248 52.3858C54.8124 52.6982 54.3972 52.8702 53.9554 52.8702C53.5137 52.8702 53.0985 52.6982 52.7861 52.3858L42.9059 42.5055C42.5016 42.1014 41.8464 42.1013 41.4419 42.5055C41.0377 42.9097 41.0377 43.5652 41.4419 43.9694L50.3026 52.8302C50.615 53.1425 50.787 53.5577 50.787 53.9994C50.787 54.4411 50.615 54.8564 50.3026 55.1688C49.9903 55.4811 49.5751 55.6531 49.1333 55.6531C48.6915 55.6531 48.2763 55.4811 47.964 55.1688L37.3166 44.5214C36.9124 44.1173 36.2569 44.1173 35.8526 44.5214C35.4484 44.9256 35.4484 45.5811 35.8526 45.9853L44.7133 54.8461C45.0257 55.1584 45.1977 55.5737 45.1977 56.0153C45.1977 56.457 45.0257 56.8723 44.7133 57.1846C44.0686 57.8294 43.0195 57.8296 42.3746 57.1846L40.4259 55.2359C40.4232 55.2332 40.4202 55.2309 40.4175 55.2283C39.672 54.4873 38.6887 54.1282 37.7119 54.1492C37.7125 54.1218 37.7139 54.0945 37.7139 54.0668C37.7139 53.0722 37.3265 52.1369 36.6232 51.4336C35.8767 50.6871 34.8896 50.3256 33.9093 50.3466C33.9099 50.3191 33.9112 50.2918 33.9112 50.2643C33.9112 49.2695 33.5239 48.3344 32.8205 47.631C32.0042 46.8147 30.9001 46.4575 29.8318 46.5591C29.7891 45.6302 29.4072 44.763 28.7453 44.1012C27.2934 42.6492 24.9308 42.6495 23.4788 44.1012L22.5855 44.9945C22.5845 44.9955 22.5835 44.9966 22.5824 44.9977L20.2838 42.6991L27.4896 30.2182H31.0774C31.4289 30.2182 31.7795 30.2368 32.1281 30.273L30.9449 31.4563C30.2415 32.1596 29.8542 33.0949 29.8542 34.0895C29.8542 35.0843 30.2415 36.0194 30.9449 36.7228C31.6709 37.4487 32.6246 37.8117 33.578 37.8117C34.5317 37.8117 35.4854 37.4488 36.2113 36.7228L39.0057 33.9284L55.1247 50.0472C55.7695 50.6919 55.7695 51.7411 55.1248 52.3858ZM45.1795 37.1741C46.6858 36.0839 47.6092 34.3246 47.6092 32.4132C47.6092 31.8415 47.1456 31.3781 46.574 31.3781C46.0024 31.3781 45.5389 31.8415 45.5389 32.4132C45.5389 33.7654 44.8247 34.9988 43.6851 35.6798L39.7425 31.7372C39.3382 31.333 38.6839 31.3224 38.2796 31.7266L34.7474 35.2588C34.1026 35.9036 33.0535 35.9035 32.4088 35.2588C32.0964 34.9465 31.9243 34.5312 31.9243 34.0895C31.9243 33.6478 32.0964 33.2325 32.4088 32.9201L36.4419 28.887C37.0783 28.2506 37.9245 27.9001 38.8247 27.9001H49.4342L56.7313 40.5392C56.7486 40.5691 56.7674 40.5976 56.7857 40.6264L52.7088 44.7034L45.1795 37.1741Z" fill="url(#paint1_linear)"/>
<path d="M60.0625 31.085C60.3347 31.085 60.6008 30.9742 60.7944 30.7817C60.9868 30.5881 61.0977 30.3221 61.0977 30.0498C61.0977 29.7765 60.9869 29.5105 60.7944 29.3169C60.6008 29.1244 60.3347 29.0146 60.0625 29.0146C59.7892 29.0146 59.5232 29.1244 59.3306 29.3169C59.1371 29.5105 59.0273 29.7765 59.0273 30.0498C59.0273 30.3221 59.1371 30.5881 59.3306 30.7817C59.5232 30.9743 59.7892 31.085 60.0625 31.085Z" fill="url(#paint2_linear)"/>
<defs>
<linearGradient id="paint0_linear" x1="69.9947" y1="38.9913" x2="0.401324" y2="15.9215" gradientUnits="userSpaceOnUse">
<stop stop-color="#EC7A8F"/>
<stop offset="1" stop-color="#FCAF8C"/>
</linearGradient>
<linearGradient id="paint1_linear" x1="59.5605" y1="42.5282" x2="15.1967" y2="23.5479" gradientUnits="userSpaceOnUse">
<stop stop-color="#EC7A8F"/>
<stop offset="1" stop-color="#FCAF8C"/>
</linearGradient>
<linearGradient id="paint2_linear" x1="60.8852" y1="30.0496" x2="59.038" y2="29.4372" gradientUnits="userSpaceOnUse">
<stop stop-color="#EC7A8F"/>
<stop offset="1" stop-color="#FCAF8C"/>
</linearGradient>
</defs>
</svg>
