<svg width="78" height="78" viewBox="0 0 78 78" fill="none" xmlns="http://www.w3.org/2000/svg">
<circle cx="39" cy="39" r="38.5" fill="white" stroke="url(#paint0_linear)"/>
<g clip-path="url(#clip0)">
<path d="M30.6117 23.0923C27.8132 21.3972 21.0204 17.7347 18.402 20.3555C15.0734 23.6832 20.6081 32.8878 26.8972 40.3916C27.0601 40.5857 27.293 40.6862 27.5284 40.6862C27.7152 40.6862 27.9028 40.6236 28.0567 40.4944C28.4047 40.2023 28.4508 39.683 28.1587 39.335C20.3375 30.0028 17.8943 23.1902 19.5656 21.5191C20.5555 20.5292 24.0914 21.0665 29.7585 24.5003C30.1477 24.7365 30.6538 24.6123 30.8891 24.223C31.1244 23.8337 31.0001 23.3285 30.6117 23.0923Z" fill="url(#paint1_linear)"/>
<path d="M56.3546 48.7518C56.1193 48.3634 55.6132 48.2391 55.2248 48.4744C54.8365 48.7106 54.7122 49.2166 54.9475 49.605C58.369 55.2532 58.8775 58.8763 57.9008 59.8531C57.0244 60.7311 54.2916 60.648 49.2524 57.7876C44.5563 55.1215 39.0924 50.7768 33.8681 45.5525L33.4097 45.0974C33.0896 44.7814 32.7382 44.4342 32.4955 44.1832C32.1795 43.8574 31.6586 43.85 31.3319 44.1651C31.006 44.4811 30.9978 45.002 31.3138 45.3287C31.5631 45.5862 31.9244 45.9434 32.2527 46.2683L32.7044 46.7159C38.03 52.0415 43.6189 56.4818 48.4401 59.2186C51.6978 61.0676 54.3582 61.9999 56.3248 61.9999C57.4884 61.9999 58.4091 61.6732 59.0633 61.0157C61.7173 58.3629 58.053 51.5553 56.3546 48.7518Z" fill="url(#paint2_linear)"/>
<path d="M37.0895 16C34.3674 16 32.1523 18.2144 32.1523 20.9372C32.1523 23.66 34.3675 25.8744 37.0895 25.8744C39.8116 25.8744 42.0267 23.66 42.0267 20.9372C42.0267 18.2144 39.8115 16 37.0895 16ZM37.0895 24.2287C35.2742 24.2287 33.798 22.7525 33.798 20.9372C33.798 19.1219 35.2742 17.6457 37.0895 17.6457C38.9039 17.6457 40.381 19.1219 40.381 20.9372C40.381 22.7525 38.9047 24.2287 37.0895 24.2287Z" fill="url(#paint3_linear)"/>
<path d="M29.6807 38.2174C27.4121 38.2174 25.5664 40.0631 25.5664 42.3317C25.5664 44.6004 27.4121 46.446 29.6807 46.446C31.9494 46.446 33.795 44.6004 33.795 42.3317C33.795 40.0631 31.9494 38.2174 29.6807 38.2174ZM29.6807 44.8003C28.3197 44.8003 27.2121 43.6928 27.2121 42.3317C27.2121 40.9707 28.3197 39.8631 29.6807 39.8631C31.0418 39.8631 32.1493 40.9707 32.1493 42.3317C32.1493 43.6928 31.0417 44.8003 29.6807 44.8003Z" fill="url(#paint4_linear)"/>
<path d="M59.3071 22.5829C57.4918 22.5829 56.0156 24.0591 56.0156 25.8744C56.0156 27.6897 57.4918 29.1659 59.3071 29.1659C61.1214 29.1659 62.5986 27.6897 62.5986 25.8744C62.5986 24.0591 61.1223 22.5829 59.3071 22.5829ZM59.3071 27.5201C58.3995 27.5201 57.6613 26.7819 57.6613 25.8743C57.6613 24.9667 58.3995 24.2286 59.3071 24.2286C60.2138 24.2286 60.9528 24.9667 60.9528 25.8743C60.9528 26.7819 60.2147 27.5201 59.3071 27.5201Z" fill="url(#paint5_linear)"/>
<path d="M59.0628 20.3554C57.064 18.3567 52.8386 19.3062 46.844 23.1038C46.4598 23.3474 46.3454 23.8551 46.5889 24.2394C46.7453 24.4862 47.0127 24.622 47.2851 24.622C47.4356 24.622 47.5878 24.58 47.7261 24.4928C52.7662 21.3001 56.5695 20.1892 57.9 21.5182C58.323 21.942 58.5246 22.5789 58.4826 23.3614C58.4578 23.8156 58.8059 24.2032 59.2602 24.227C59.7103 24.2403 60.1011 23.9037 60.1258 23.4494C60.1917 22.206 59.8148 21.1075 59.0628 20.3554Z" fill="url(#paint6_linear)"/>
<path d="M58.3416 27.2182C57.931 27.0256 57.4405 27.2001 57.2464 27.6115C54.8782 32.6278 49.6488 39.502 43.5983 45.5525C38.3739 50.7761 32.9108 55.1217 28.2139 57.7877C23.1746 60.6471 20.4419 60.7294 19.5655 59.8531C18.5986 58.8862 19.1146 55.2755 22.5328 49.6331C22.7681 49.2439 22.6439 48.7378 22.2555 48.5025C21.8671 48.2672 21.361 48.3906 21.1257 48.7799C19.4281 51.5808 15.7655 58.3802 18.402 61.0167C19.0586 61.6733 19.9785 62 21.1421 62C23.108 62 25.7691 61.0677 29.026 59.2187C33.848 56.4819 39.4361 52.0416 44.7609 46.7161C50.9365 40.5413 56.2901 33.4901 58.734 28.3135C58.9282 27.9028 58.7521 27.4124 58.3416 27.2182Z" fill="url(#paint7_linear)"/>
<path d="M41.1747 21.0927C40.76 21.0416 40.3732 21.3083 40.2745 21.7147C39.914 23.1951 38.6032 24.2286 37.0875 24.2286C35.7684 24.2286 34.5811 23.4444 34.0619 22.2298C33.8965 21.8456 33.4702 21.6456 33.0695 21.7657C24.7766 24.2451 18.9844 32.0253 18.9844 40.6861C18.9844 51.5751 27.8434 60.4349 38.7332 60.4349C49.6223 60.4349 58.482 51.575 58.482 40.6861C58.4821 30.7334 51.0409 22.3106 41.1747 21.0927ZM38.7332 58.7891C28.751 58.7891 20.6301 50.6682 20.6301 40.6861C20.6301 32.9725 25.6414 26.0218 32.8975 23.5482C33.7895 24.9825 35.3636 25.8744 37.0875 25.8744C39.1102 25.8744 40.8892 24.6508 41.6405 22.8216C50.3497 24.2262 56.8364 31.7892 56.8364 40.6861C56.8364 50.6682 48.7155 58.7891 38.7332 58.7891Z" fill="url(#paint8_linear)"/>
<path d="M37.6691 34.3442C37.3482 34.0225 36.8265 34.0225 36.5056 34.3442L35.6827 35.1671C35.361 35.4888 35.361 36.0089 35.6827 36.3306C35.8432 36.4911 36.0538 36.5718 36.2644 36.5718C36.475 36.5718 36.6857 36.4911 36.8462 36.3306L37.6691 35.5078C37.9909 35.186 37.9909 34.6659 37.6691 34.3442Z" fill="url(#paint9_linear)"/>
<path d="M43.427 37.6357C43.106 37.314 42.5843 37.314 42.2634 37.6357L41.4405 38.4586C41.1188 38.7803 41.1188 39.3004 41.4405 39.6222C41.601 39.7826 41.8117 39.8633 42.0223 39.8633C42.2329 39.8633 42.4435 39.7826 42.604 39.6222L43.4269 38.7993C43.7487 38.4775 43.7487 37.9574 43.427 37.6357Z" fill="url(#paint10_linear)"/>
<path d="M39.3176 37.6357C38.9967 37.314 38.4749 37.314 38.154 37.6357L37.3311 38.4586C37.0094 38.7803 37.0094 39.3004 37.3311 39.6222C37.4916 39.7826 37.7023 39.8633 37.9129 39.8633C38.1235 39.8633 38.3342 39.7826 38.4946 39.6222L39.3175 38.7993C39.6393 38.4775 39.6393 37.9574 39.3176 37.6357Z" fill="url(#paint11_linear)"/>
<path d="M40.9621 30.2298C40.6412 29.9081 40.1195 29.9081 39.7986 30.2298L38.9757 31.0527C38.6539 31.3744 38.6539 31.8945 38.9757 32.2163C39.1361 32.3767 39.3468 32.4574 39.5574 32.4574C39.768 32.4574 39.9787 32.3767 40.1391 32.2163L40.962 31.3934C41.2838 31.0716 41.2838 30.5516 40.9621 30.2298Z" fill="url(#paint12_linear)"/>
<path d="M46.7238 33.5213C46.4029 33.1996 45.8812 33.1996 45.5603 33.5213L44.7374 34.3442C44.4157 34.6659 44.4157 35.186 44.7374 35.5078C44.8979 35.6682 45.1085 35.7489 45.3191 35.7489C45.5298 35.7489 45.7404 35.6682 45.9009 35.5078L46.7237 34.6849C47.0456 34.3632 47.0456 33.8431 46.7238 33.5213Z" fill="url(#paint13_linear)"/>
<path d="M42.6067 33.5213C42.2857 33.1996 41.764 33.1996 41.4431 33.5213L40.6202 34.3442C40.2985 34.6659 40.2985 35.186 40.6202 35.5078C40.7807 35.6682 40.9913 35.7489 41.2019 35.7489C41.4126 35.7489 41.6232 35.6682 41.7837 35.5078L42.6066 34.6849C42.9284 34.3632 42.9284 33.8431 42.6067 33.5213Z" fill="url(#paint14_linear)"/>
</g>
<defs>
<linearGradient id="paint0_linear" x1="69.9947" y1="38.9913" x2="0.401324" y2="15.9215" gradientUnits="userSpaceOnUse">
<stop stop-color="#EC7A8F"/>
<stop offset="1" stop-color="#FCAF8C"/>
</linearGradient>
<linearGradient id="paint1_linear" x1="29.6118" y1="30.0602" x2="16.7193" y2="27.3235" gradientUnits="userSpaceOnUse">
<stop stop-color="#EC7A8F"/>
<stop offset="1" stop-color="#FCAF8C"/>
</linearGradient>
<linearGradient id="paint2_linear" x1="57.0309" y1="52.9648" x2="34.6862" y2="41.109" gradientUnits="userSpaceOnUse">
<stop stop-color="#EC7A8F"/>
<stop offset="1" stop-color="#FCAF8C"/>
</linearGradient>
<linearGradient id="paint3_linear" x1="41.0133" y1="20.9361" x2="32.2031" y2="18.0156" gradientUnits="userSpaceOnUse">
<stop stop-color="#EC7A8F"/>
<stop offset="1" stop-color="#FCAF8C"/>
</linearGradient>
<linearGradient id="paint4_linear" x1="32.9505" y1="42.3308" x2="25.6087" y2="39.897" gradientUnits="userSpaceOnUse">
<stop stop-color="#EC7A8F"/>
<stop offset="1" stop-color="#FCAF8C"/>
</linearGradient>
<linearGradient id="paint5_linear" x1="61.9229" y1="25.8737" x2="56.0495" y2="23.9267" gradientUnits="userSpaceOnUse">
<stop stop-color="#EC7A8F"/>
<stop offset="1" stop-color="#FCAF8C"/>
</linearGradient>
<linearGradient id="paint6_linear" x1="58.73" y1="21.978" x2="50.9261" y2="15.2879" gradientUnits="userSpaceOnUse">
<stop stop-color="#EC7A8F"/>
<stop offset="1" stop-color="#FCAF8C"/>
</linearGradient>
<linearGradient id="paint7_linear" x1="54.5706" y1="44.566" x2="19.1147" y2="30.6291" gradientUnits="userSpaceOnUse">
<stop stop-color="#EC7A8F"/>
<stop offset="1" stop-color="#FCAF8C"/>
</linearGradient>
<linearGradient id="paint8_linear" x1="54.4283" y1="40.7562" x2="19.2141" y2="29.0387" gradientUnits="userSpaceOnUse">
<stop stop-color="#EC7A8F"/>
<stop offset="1" stop-color="#FCAF8C"/>
</linearGradient>
<linearGradient id="paint9_linear" x1="37.657" y1="35.3371" x2="35.4541" y2="34.6068" gradientUnits="userSpaceOnUse">
<stop stop-color="#EC7A8F"/>
<stop offset="1" stop-color="#FCAF8C"/>
</linearGradient>
<linearGradient id="paint10_linear" x1="43.4148" y1="38.6286" x2="41.2119" y2="37.8983" gradientUnits="userSpaceOnUse">
<stop stop-color="#EC7A8F"/>
<stop offset="1" stop-color="#FCAF8C"/>
</linearGradient>
<linearGradient id="paint11_linear" x1="39.3055" y1="38.6286" x2="37.1026" y2="37.8983" gradientUnits="userSpaceOnUse">
<stop stop-color="#EC7A8F"/>
<stop offset="1" stop-color="#FCAF8C"/>
</linearGradient>
<linearGradient id="paint12_linear" x1="40.95" y1="31.2227" x2="38.7471" y2="30.4924" gradientUnits="userSpaceOnUse">
<stop stop-color="#EC7A8F"/>
<stop offset="1" stop-color="#FCAF8C"/>
</linearGradient>
<linearGradient id="paint13_linear" x1="46.7117" y1="34.5142" x2="44.5088" y2="33.7839" gradientUnits="userSpaceOnUse">
<stop stop-color="#EC7A8F"/>
<stop offset="1" stop-color="#FCAF8C"/>
</linearGradient>
<linearGradient id="paint14_linear" x1="42.5945" y1="34.5142" x2="40.3916" y2="33.7839" gradientUnits="userSpaceOnUse">
<stop stop-color="#EC7A8F"/>
<stop offset="1" stop-color="#FCAF8C"/>
</linearGradient>
<clipPath id="clip0">
<rect x="17" y="16" width="46" height="46" fill="white"/>
</clipPath>
</defs>
</svg>
