<svg width="78" height="78" viewBox="0 0 78 78" fill="none" xmlns="http://www.w3.org/2000/svg">
<circle cx="39" cy="39" r="38.5" stroke="url(#paint0_linear)"/>
<g clip-path="url(#clip0)">
<path d="M59.571 18.3917C58.5406 17.2905 57.0175 16.7946 55.5362 17.0785C50.634 18.1808 43.6736 20.613 38.3695 25.9182C36.3995 27.9016 34.5583 30.0092 32.8574 32.228C30.5962 30.7419 27.7457 30.4722 25.2459 31.508C22.7462 32.5438 20.9218 34.7506 20.3743 37.4003C20.3187 37.6744 20.4211 37.9565 20.6397 38.1308C20.8586 38.3047 21.1563 38.3413 21.4108 38.2259C23.7207 37.1973 26.4118 37.552 28.376 39.1441C28.0837 39.7286 27.8183 40.2929 27.6117 40.8102C27.5006 41.0865 27.5649 41.402 27.7751 41.6126L36.3454 50.1829C36.5541 50.3917 36.8664 50.4574 37.1412 50.3503C37.6615 50.148 38.2297 49.8812 38.8404 49.5747C40.5508 51.5462 40.9625 54.331 39.8962 56.7131C39.7916 56.9433 39.8112 57.2105 39.9481 57.4229C40.085 57.6353 40.3203 57.7634 40.5726 57.7638C40.6227 57.7642 40.6724 57.7591 40.7215 57.7489C42.2841 57.4312 43.7179 56.6583 44.8423 55.5277C47.6278 52.7193 48.0166 48.3247 45.7674 45.0709C47.9742 43.3811 50.0694 41.5505 52.0409 39.591C57.3454 34.2862 59.7776 27.328 60.8849 22.4251C61.1689 20.9441 60.6729 19.421 59.571 18.3917ZM24.1444 36.1513C23.5065 36.1517 22.8711 36.2265 22.2506 36.3742C23.0359 34.5901 24.5601 33.2369 26.4248 32.6691C28.2896 32.1009 30.3093 32.3739 31.9562 33.417C31.7936 33.6399 31.6396 33.8632 31.4828 34.0862C31.4083 34.1933 31.3281 34.3011 31.2537 34.4075C30.9407 34.858 30.6408 35.3043 30.3533 35.7458C30.2966 35.8314 30.2462 35.9146 30.1917 36.0003C29.9644 36.3543 29.7473 36.7028 29.5403 37.0463C29.4601 37.1795 29.3828 37.311 29.3054 37.4427C29.2365 37.5611 29.1566 37.682 29.0941 37.7989C27.6658 36.7293 25.9289 36.1509 24.1444 36.1513ZM43.7901 54.474C43.2027 55.0622 42.5107 55.5349 41.7489 55.8675C42.3295 53.4139 41.7566 50.8292 40.1936 48.8504C40.3101 48.7836 40.4314 48.7077 40.5497 48.638C40.6812 48.5636 40.8122 48.4834 40.9451 48.4028C41.2857 48.1976 41.6306 47.9827 41.9795 47.7576C42.0724 47.6973 42.1632 47.6421 42.2569 47.5804C42.694 47.295 43.1359 46.9955 43.5828 46.6822C43.6943 46.6081 43.8057 46.5217 43.9194 46.4415C44.1427 46.2846 44.3605 46.1299 44.5827 45.9669C46.3864 48.6275 46.0542 52.1929 43.7901 54.474ZM50.9887 38.5374C48.8905 40.6269 46.6482 42.5664 44.2788 44.3422C43.6496 44.8167 43.0251 45.26 42.4057 45.6866C41.5877 46.2519 40.7774 46.7806 40.0008 47.2438C39.5473 47.5143 39.1043 47.7641 38.6752 47.9954C38.0801 48.3109 37.5421 48.5694 37.0468 48.7814L29.1798 40.9137C29.4027 40.4072 29.6616 39.8652 29.9611 39.2973C31.0333 37.344 32.2485 35.4727 33.5966 33.6988L33.6129 33.6773L33.6249 33.661C35.3999 31.2996 37.3358 29.0638 39.4188 26.9689C42.3651 24.1126 45.8618 21.8855 49.6962 20.4231L57.5349 28.2589C56.0728 32.0936 53.8454 35.5907 50.9887 38.5374ZM59.437 22.0954C59.083 23.6635 58.6401 25.2102 58.1104 26.7278L51.2302 19.8513C52.7482 19.3219 54.2952 18.8793 55.8633 18.5257C56.8461 18.3634 57.8446 18.7069 58.5195 19.4395C59.2533 20.1138 59.5982 21.1122 59.437 22.0954Z" fill="url(#paint1_linear)"/>
<path d="M39.421 29.0732C36.8076 31.6866 36.8076 35.9236 39.421 38.537C42.0344 41.1507 46.2718 41.1507 48.8851 38.537C51.4985 35.9236 51.4985 31.6866 48.8851 29.0732C46.2696 26.4645 42.0365 26.4645 39.421 29.0732ZM47.8373 37.4859C46.0815 39.2413 43.3298 39.5118 41.2654 38.1322C39.2006 36.7525 38.3986 34.1064 39.3491 31.8126C40.2996 29.5183 42.738 28.2153 45.1735 28.7C47.6089 29.1847 49.3626 31.3221 49.3626 33.8051C49.3618 35.1855 48.8132 36.5092 47.8373 37.4859Z" fill="url(#paint2_linear)"/>
<path d="M44.2559 36.7778C43.8554 36.7927 43.4561 36.7259 43.0825 36.5806C42.833 36.4775 42.5469 36.5175 42.3356 36.6856C42.124 36.8537 42.0205 37.1231 42.0648 37.3896C42.1091 37.656 42.2942 37.8775 42.5488 37.9683C43.0603 38.1654 43.6042 38.2664 44.1524 38.2656H44.3057C44.7163 38.2518 45.038 37.908 45.0242 37.4977C45.0009 37.0911 44.6629 36.7745 44.2559 36.7778Z" fill="url(#paint3_linear)"/>
<path d="M46.2582 30.6511C45.9681 30.9412 45.9681 31.4121 46.2582 31.7022C47.4193 32.8636 47.4193 34.7465 46.2582 35.908C46.065 36.0946 45.9873 36.3712 46.0556 36.6312C46.1235 36.8912 46.3264 37.0941 46.5864 37.162C46.8464 37.2303 47.123 37.1526 47.3096 36.9594C49.0513 35.217 49.0513 32.3931 47.3096 30.6511C47.0192 30.3606 46.5486 30.3606 46.2582 30.6511Z" fill="url(#paint4_linear)"/>
<path d="M32.5883 40.1148C32.2964 39.8331 31.8327 39.8371 31.5459 40.1239C31.2591 40.4107 31.2551 40.8747 31.5368 41.1663L36.7945 46.4235C37.0864 46.7053 37.55 46.7013 37.8368 46.4145C38.1237 46.1276 38.1276 45.6636 37.8459 45.3721L32.5883 40.1148Z" fill="url(#paint5_linear)"/>
<path d="M53.1863 27.931L50.0323 24.7766C49.8467 24.5788 49.5679 24.4978 49.305 24.565C49.0425 24.6325 48.837 24.8376 48.7695 25.1001C48.702 25.363 48.7829 25.6418 48.9808 25.8274L52.1348 28.9817C52.4267 29.2635 52.8904 29.2595 53.1772 28.9726C53.464 28.6858 53.468 28.2218 53.1863 27.9303V27.931Z" fill="url(#paint6_linear)"/>
<path d="M32.8094 48.025C32.816 47.8199 32.7375 47.6209 32.5923 47.4757L30.4894 45.372C30.3442 45.2268 30.1452 45.148 29.9397 45.1546C29.7346 45.1614 29.5411 45.2526 29.4053 45.4069L21.763 54.1061L17.2933 59.795C17.0562 60.0945 17.0849 60.5251 17.3593 60.7905C17.6338 61.0563 18.0648 61.0708 18.3567 60.8239L23.8768 56.1864L23.8895 56.1759L32.5575 48.5598C32.7114 48.424 32.8029 48.2305 32.8094 48.025ZM22.9139 55.0533L22.8969 55.0682L29.9978 46.9848L30.9796 47.9662L22.9139 55.0533Z" fill="url(#paint7_linear)"/>
<path d="M20.8482 52.8192C21.0487 52.8195 21.2411 52.7393 21.3812 52.5959L28.916 44.8389C29.1974 44.5477 29.1941 44.0852 28.9084 43.798L26.8048 41.6951C26.6396 41.5299 26.4061 41.4518 26.1748 41.4845C25.9432 41.5175 25.7406 41.6569 25.6277 41.8617L20.1998 51.7202C20.0749 51.9496 20.0796 52.2281 20.2125 52.4532C20.3454 52.6787 20.5868 52.8174 20.8482 52.8192ZM26.4526 43.4432L27.3389 44.3288L24.1667 47.5931L26.4526 43.4432Z" fill="url(#paint8_linear)"/>
<path d="M34.1663 49.0525C33.8758 48.7624 33.4049 48.7624 33.1148 49.0525L25.499 56.669C25.299 56.8691 25.2296 57.1653 25.3208 57.4333L25.3495 57.519C25.421 57.7299 25.5833 57.8977 25.7917 57.9761C26.0001 58.0545 26.2328 58.0356 26.4256 57.9242L36.1156 52.3252C36.3156 52.2094 36.4503 52.0076 36.4805 51.7785C36.5106 51.5497 36.4329 51.3195 36.2695 51.1562L34.1663 49.0525ZM30.3061 53.9656L33.6384 50.6297L34.5304 51.5221L30.3061 53.9656Z" fill="url(#paint9_linear)"/>
<path d="M56.2503 21.7126C55.9555 21.453 55.5097 21.4675 55.2323 21.7457C54.9553 22.0241 54.9422 22.47 55.2029 22.7637L56.7761 24.3402C57.068 24.6219 57.5316 24.6179 57.8184 24.3311C58.1053 24.0443 58.1093 23.5806 57.8275 23.2887L56.2503 21.7126Z" fill="url(#paint10_linear)"/>
</g>
<defs>
<linearGradient id="paint0_linear" x1="69.9947" y1="38.9913" x2="0.401324" y2="15.9215" gradientUnits="userSpaceOnUse">
<stop stop-color="#EC7A8F"/>
<stop offset="1" stop-color="#FCAF8C"/>
</linearGradient>
<linearGradient id="paint1_linear" x1="56.7963" y1="37.3773" x2="20.5402" y2="25.4057" gradientUnits="userSpaceOnUse">
<stop stop-color="#EC7A8F"/>
<stop offset="1" stop-color="#FCAF8C"/>
</linearGradient>
<linearGradient id="paint2_linear" x1="49.4715" y1="33.8055" x2="37.5304" y2="29.846" gradientUnits="userSpaceOnUse">
<stop stop-color="#EC7A8F"/>
<stop offset="1" stop-color="#FCAF8C"/>
</linearGradient>
<linearGradient id="paint3_linear" x1="44.7198" y1="37.3947" x2="42.4911" y2="36.1348" gradientUnits="userSpaceOnUse">
<stop stop-color="#EC7A8F"/>
<stop offset="1" stop-color="#FCAF8C"/>
</linearGradient>
<linearGradient id="paint4_linear" x1="48.3506" y1="33.809" x2="45.8317" y2="33.4895" gradientUnits="userSpaceOnUse">
<stop stop-color="#EC7A8F"/>
<stop offset="1" stop-color="#FCAF8C"/>
</linearGradient>
<linearGradient id="paint5_linear" x1="37.3643" y1="43.2684" x2="31.3628" y2="41.2789" gradientUnits="userSpaceOnUse">
<stop stop-color="#EC7A8F"/>
<stop offset="1" stop-color="#FCAF8C"/>
</linearGradient>
<linearGradient id="paint6_linear" x1="52.9178" y1="26.8656" x2="48.77" y2="25.4905" gradientUnits="userSpaceOnUse">
<stop stop-color="#EC7A8F"/>
<stop offset="1" stop-color="#FCAF8C"/>
</linearGradient>
<linearGradient id="paint7_linear" x1="31.2009" y1="53.0753" x2="17.1841" y2="48.4783" gradientUnits="userSpaceOnUse">
<stop stop-color="#EC7A8F"/>
<stop offset="1" stop-color="#FCAF8C"/>
</linearGradient>
<linearGradient id="paint8_linear" x1="28.1996" y1="47.1469" x2="19.8515" y2="44.9472" gradientUnits="userSpaceOnUse">
<stop stop-color="#EC7A8F"/>
<stop offset="1" stop-color="#FCAF8C"/>
</linearGradient>
<linearGradient id="paint9_linear" x1="35.3368" y1="53.4283" x2="25.7989" y2="49.5727" gradientUnits="userSpaceOnUse">
<stop stop-color="#EC7A8F"/>
<stop offset="1" stop-color="#FCAF8C"/>
</linearGradient>
<linearGradient id="paint10_linear" x1="57.7262" y1="23.0376" x2="55.031" y2="22.1445" gradientUnits="userSpaceOnUse">
<stop stop-color="#EC7A8F"/>
<stop offset="1" stop-color="#FCAF8C"/>
</linearGradient>
<clipPath id="clip0">
<rect x="17" y="17" width="44" height="44" fill="white"/>
</clipPath>
</defs>
</svg>
