<svg width="12" height="11" viewBox="0 0 12 11" fill="none" xmlns="http://www.w3.org/2000/svg">
<path d="M0 7.53233C0 4.699 2.05285 2.39005 3.94715 0.804688L5.16667 1.76404C4.26711 2.68033 3.64676 3.83361 3.37805 5.08924C3.94313 5.20522 4.45203 5.50975 4.82133 5.95291C5.19062 6.39606 5.39839 6.95154 5.41057 7.52826C5.41084 7.88353 5.34113 8.23536 5.20542 8.56369C5.06971 8.89201 4.87067 9.19039 4.61965 9.44179C4.36863 9.69318 4.07055 9.89268 3.74243 10.0289C3.41431 10.1651 3.06258 10.2353 2.70732 10.2356C1.98983 10.2361 1.30152 9.95162 0.793797 9.44466C0.542399 9.19364 0.342905 8.89556 0.206705 8.56744C0.0705055 8.23933 0.000266914 7.88759 0 7.53233H0ZM6.62195 7.53233C6.62195 4.6868 8.62195 2.39005 10.5447 0.804688L11.7642 1.76404C10.8621 2.68265 10.233 3.83388 9.94715 5.08924C10.5156 5.20184 11.0288 5.50481 11.402 5.94819C11.7751 6.39158 11.9861 6.9489 12 7.52826C12 8.24747 11.716 8.93759 11.2097 9.44843C10.7035 9.95926 10.0159 10.2495 9.29675 10.2559C8.94182 10.2543 8.59071 10.1824 8.26372 10.0444C7.93672 9.90637 7.64031 9.70492 7.39161 9.45169C7.14291 9.19845 6.94685 8.89845 6.81474 8.56901C6.68264 8.23958 6.61712 7.88723 6.62195 7.53233Z" fill="#344461"/>
</svg>
