<svg width="16" height="16" viewBox="0 0 16 16" fill="none" xmlns="http://www.w3.org/2000/svg">
<path d="M13.6568 2.34313C12.1458 0.832156 10.1369 0 8 0C5.86309 0 3.85409 0.832156 2.34313 2.34313C0.832125 3.85413 0 5.86312 0 8C0 10.1369 0.832125 12.1458 2.34313 13.6568C3.85413 15.1678 5.86309 16 8 16C10.1369 16 12.1458 15.1678 13.6568 13.6568C15.1678 12.1458 16 10.1369 16 8C16 5.86312 15.1678 3.85416 13.6568 2.34313ZM8 15.0625C4.10572 15.0625 0.9375 11.8943 0.9375 8C0.9375 4.10572 4.10572 0.9375 8 0.9375C11.8943 0.9375 15.0625 4.10572 15.0625 8C15.0625 11.8943 11.8943 15.0625 8 15.0625Z" fill="#94E858"/>
<path d="M11.8244 5.4329C11.6413 5.2499 11.3445 5.2499 11.1615 5.43293L7.02214 9.57228L4.84317 7.39331C4.66014 7.21028 4.36333 7.21028 4.18027 7.39331C3.9972 7.57634 3.9972 7.87315 4.18027 8.05621L6.69067 10.5666C6.7822 10.6582 6.90217 10.7039 7.02211 10.7039C7.14205 10.7039 7.26205 10.6581 7.35355 10.5666L11.8244 6.09581C12.0074 5.91278 12.0074 5.61596 11.8244 5.4329Z" fill="#94E858"/>
</svg>
